<?xml version="1.0" encoding="utf-8"?>
<!-- Generator: Adobe Illustrator 17.1.0, SVG Export Plug-In . SVG Version: 6.00 Build 0)  -->
<!DOCTYPE svg PUBLIC "-//W3C//DTD SVG 1.1//EN" "http://www.w3.org/Graphics/SVG/1.1/DTD/svg11.dtd">
<svg version="1.1" id="Layer_1" xmlns="http://www.w3.org/2000/svg" xmlns:xlink="http://www.w3.org/1999/xlink" x="0px" y="0px"
	 viewBox="0 0 281 293" enable-background="new 0 0 281 293" xml:space="preserve">
<g>
	<path fill="#E6B800" d="M194.4,96c-35.1,21.5-60.5,48.6-72,62.3l-28-21.9l-12.4,10l48.4,49.2c8.3-21.3,34.7-63,66.9-92.7L194.4,96z
		"/>
</g>
<path fill="#333846" d="M268.7,132.9l-28.7-28.7V63.7c0-10.1-8.2-18.2-18.2-18.2h-40.5l-28.7-28.7c-3.4-3.4-8-5.3-12.9-5.3
	c-4.9,0-9.4,1.9-12.9,5.3L98.2,45.4H57.7c-10.1,0-18.2,8.2-18.2,18.2v40.5l-28.7,28.7c-3.4,3.4-5.3,8-5.3,12.9
	c0,4.9,1.9,9.4,5.3,12.9l28.7,28.7v40.5c0,10.1,8.2,18.2,18.2,18.2h40.5l28.7,28.7c3.4,3.4,8,5.3,12.9,5.3c4.9,0,9.4-1.9,12.9-5.3
	l28.7-28.7h40.5c10.1,0,18.2-8.2,18.2-18.2v-40.5l28.7-28.7c3.4-3.4,5.3-8,5.3-12.9C274.1,140.9,272.2,136.3,268.7,132.9z
	 M21.1,148.3c-0.7-0.7-1-1.6-1-2.5s0.4-1.9,1-2.5l33-33V63.7c0-2,1.6-3.6,3.6-3.6h46.6l33-33c1.4-1.4,3.7-1.4,5.1,0l33,33h46.6
	c2,0,3.6,1.6,3.6,3.6v46.6l33,33c0.7,0.7,1,1.6,1,2.5s-0.4,1.9-1,2.5l-33,33v46.6c0,2-1.6,3.6-3.6,3.6h-46.6l-33,33
	c-1.4,1.4-3.7,1.4-5.1,0l-33-33H57.7c-2,0-3.6-1.6-3.6-3.6v-46.6L21.1,148.3z"/>
</svg>
