<?xml version="1.0" encoding="utf-8"?>
<!-- Generator: Adobe Illustrator 17.1.0, SVG Export Plug-In . SVG Version: 6.00 Build 0)  -->
<!DOCTYPE svg PUBLIC "-//W3C//DTD SVG 1.1//EN" "http://www.w3.org/Graphics/SVG/1.1/DTD/svg11.dtd">
<svg version="1.1" id="Layer_1" xmlns="http://www.w3.org/2000/svg" xmlns:xlink="http://www.w3.org/1999/xlink" x="0px" y="0px"
	 viewBox="0 932.2 3369.6 492" enable-background="new 0 932.2 3369.6 492" xml:space="preserve">
<rect x="93.1" y="982.1" transform="matrix(0.7071 0.7071 -0.7071 0.7071 828.7773 177.4912)" fill="#333846" width="214.1" height="214.1"/>
<polygon fill="#333846" points="363,1417.8 211.3,1266.1 363,1114.3 "/>
<polygon fill="#333846" points="27.9,1114.3 179.6,1266.1 27.9,1417.8 "/>
<g>
	<path fill="#333846" d="M653.4,1047.3c-15.8-5.6-36.3-9.3-62.4-9.3h-60.5v279.2h58.6c26.1,0,47.5-3.7,61.4-8.4
		c15.8-4.7,30.7-14.9,45.6-27.9c28.9-26.1,42.8-60.5,42.8-103.3c0-41.9-14-76.3-41-102.4C685.1,1062.2,669.3,1052,653.4,1047.3z
		 M592.9,1270.7h-15.8v-186.2h15.8c31.6,0,55.8,9.3,71.7,24.2c17.7,16.8,27,40,27,68c0,27-9.3,50.3-27,67
		c-8.4,8.4-18.6,15.8-29.8,19.5C623.7,1267,609.7,1270.7,592.9,1270.7z"/>
	<path fill="#333846" d="M794.9,1043.6c-8.4,0-14.9,2.8-20.5,8.4s-8.4,13-8.4,20.5c0,8.4,2.8,15.8,8.4,21.4s13,8.4,20.5,8.4
		c8.4,0,14.9-2.8,20.5-8.4s8.4-13,8.4-21.4s-2.8-14.9-8.4-21.4C809.8,1046.4,803.3,1043.6,794.9,1043.6z"/>
	<rect x="772.6" y="1140.4" fill="#333846" width="46.5" height="176.9"/>
	<path fill="#333846" d="M914.1,1138.5c-2.8,1.9-11.2,3.7-11.2,7.4v-5.6h-46.5v176.9h46.5v-94c0-42.8,19.5-42.8,26.1-42.8
		c5.6,0,12.1,2.8,17.7,7.4l4.7,3.7l21.4-44.7l-3.7-1.9C949.4,1131.1,929,1131.1,914.1,1138.5z"/>
	<path fill="#333846" d="M1099.3,1245.6c-7.4,12.1-14,19.5-19.5,24.2c-5.6,3.7-12.1,5.6-20.5,5.6c-11.2,0-19.5-1.9-26.1-9.3
		c-5.6-6.5-9.3-14-11.2-23.3h115.4v-14.9c0-28.9-7.4-52.1-21.4-68.9c-14.9-16.8-34.4-25.1-59.6-25.1c-25.1,0-45.6,8.4-60.5,26.1
		c-14.9,16.8-22.3,40-22.3,67c0,27.9,7.4,50.3,23.3,67c15.8,16.8,36.3,25.1,61.4,25.1c8.4,0,16.8-0.9,24.2-2.8
		c7.4-1.9,14.9-4.7,21.4-9.3c6.5-3.7,13-9.3,18.6-15.8s11.2-14,15.8-23.3l1.9-3.7l-39.1-23.3L1099.3,1245.6z M1026.7,1196.3
		c0.9,0,1.9-2.8,2.8-4.7c1.9-3.7,4.7-5.6,7.4-7.4c2.8-2.8,5.6-3.7,9.3-4.7c3.7-0.9,7.4-2.8,11.2-2.8c15.8,0,26.1,11.2,31.6,20.5
		h-62.4L1026.7,1196.3L1026.7,1196.3z"/>
	<path fill="#333846" d="M1254.8,1133c-26.1,0-48.4,9.3-66.1,27s-27,40-27,67c0,26.1,9.3,48.4,27,66.1s40,26.1,66.1,26.1
		c15.8,0,30.7-4.7,46.5-13l1.9-0.9v-67l-7.4,10.2c-8.4,11.2-15.8,17.7-21.4,21.4c-6.5,3.7-13,5.6-21.4,5.6c-13,0-23.3-4.7-30.7-14
		c-8.4-9.3-12.1-21.4-12.1-35.4s4.7-26.1,13-35.4c8.4-9.3,18.6-14,31.6-14c8.4,0,14.9,1.9,21.4,5.6s13,11.2,20.5,21.4l6.5,11.2v-68
		l-1.9-0.9C1286.4,1137.6,1271.5,1133,1254.8,1133z"/>
	<polygon fill="#333846" points="1377.6,1075.2 1331.1,1075.2 1331.1,1140.4 1312.5,1140.4 1312.5,1186.9 1331.1,1186.9 
		1331.1,1317.3 1377.6,1317.3 1377.6,1186.9 1405.6,1186.9 1405.6,1140.4 1377.6,1140.4 	"/>
	<path fill="#333846" d="M1635.5,1147.9l-25.1-11.2c-16.8-7.4-25.1-15.8-25.1-27c0-8.4,2.8-14.9,9.3-19.5c6.5-5.6,14-8.4,23.3-8.4
		c7.4,0,14,1.9,18.6,4.7c2.8,1.9,8.4,6.5,14.9,18.6l2.8,4.7l39.1-24.2l-1.9-3.7c-17.7-31.6-41.9-47.5-73.5-47.5
		c-23.3,0-42.8,7.4-57.7,21.4c-15.8,14-23.3,32.6-23.3,54c0,31.6,18.6,55.8,55.8,71.7l25.1,10.2c6.5,2.8,11.2,5.6,15.8,8.4
		s7.4,5.6,10.2,9.3c2.8,2.8,4.7,6.5,5.6,10.2s1.9,8.4,1.9,13c0,12.1-3.7,21.4-10.2,28.9c-7.4,7.4-15.8,11.2-27,11.2
		c-14,0-24.2-4.7-30.7-14.9c-2.8-3.7-6.5-12.1-8.4-29.8l-0.9-5.6l-48.4,11.2l0.9,4.7c3.7,26.1,13,45.6,27.9,60.5
		c14.9,14,35.4,21.4,58.6,21.4c25.1,0,45.6-8.4,62.4-25.1c16.8-16.8,25.1-38.2,25.1-64.2c0-19.5-5.6-35.4-15.8-49.3
		C1672.7,1168.3,1656.9,1157.2,1635.5,1147.9z"/>
	<path fill="#333846" d="M1821.6,1133c-16.8,0-34.4,5.6-43.7,16.8v-9.3h-46.5v269.9h46.5v-108c9.3,11.2,27.9,17.7,44.7,17.7
		c23.3,0,41.9-9.3,57.7-27c14.9-17.7,22.3-40,22.3-66.1c0-27-7.4-49.3-22.3-67C1864.5,1142.3,1845.8,1133,1821.6,1133z
		 M1784.4,1190.7c7.4-9.3,17.7-13,29.8-13c11.2,0,21.4,4.7,28.9,14c7.4,9.3,11.2,21.4,11.2,36.3c0,14-3.7,25.1-12.1,34.4
		c-7.4,9.3-16.8,13-28.9,13s-22.3-4.7-29.8-13c-7.4-9.3-12.1-21.4-12.1-36.3C1773.2,1212.1,1777,1200,1784.4,1190.7z"/>
	<path fill="#333846" d="M2047.8,1150.6c-9.3-12.1-27-17.7-43.7-17.7c-23.3,0-41.9,9.3-56.8,27s-22.3,40-22.3,66.1
		c0,27,8.4,49.3,23.3,67c15.8,17.7,33.5,27,56.8,27c15.8,0,33.5-5.6,42.8-16.8v14h46.5v-176.9h-46.5L2047.8,1150.6L2047.8,1150.6z
		 M2042.2,1262.3c-7.4,9.3-17.7,13-29.8,13c-11.2,0-21.4-4.7-28.9-14c-7.4-9.3-11.2-21.4-11.2-36.3c0-14,3.7-25.1,12.1-34.4
		c7.4-9.3,16.8-14,28.9-14s22.3,4.7,29.8,13c7.4,9.3,12.1,21.4,12.1,36.3C2054.3,1240.9,2049.7,1253,2042.2,1262.3z"/>
	<path fill="#333846" d="M2221.9,1133c-26.1,0-48.4,9.3-66.1,27c-17.7,17.7-27,40-27,67c0,26.1,9.3,48.4,27,66.1s40,26.1,66.1,26.1
		c15.8,0,31.6-4.7,47.5-13l1.9-0.9v-67l-8.4,10.2c-8.4,11.2-15.8,17.7-22.3,21.4c-6.5,3.7-13,5.6-21.4,5.6c-13,0-23.3-4.7-31.6-14
		c-8.4-9.3-12.1-21.4-12.1-35.4s3.7-26.1,13-35.4c8.4-9.3,18.6-14,31.6-14c8.4,0,14.9,1.9,21.4,5.6s13,11.2,21.4,21.4l8.4,11.2v-68
		l-1.9-0.9C2254.5,1137.6,2238.6,1133,2221.9,1133z"/>
	<rect x="2299.1" y="1140.4" fill="#333846" width="46.5" height="176.9"/>
	<path fill="#333846" d="M2321.5,1043.6c-8.4,0-14.9,2.8-20.5,8.4s-8.4,13-8.4,20.5c0,8.4,2.8,15.8,8.4,21.4s13,8.4,20.5,8.4
		c8.4,0,14.9-2.8,20.5-8.4s8.4-13,8.4-21.4s-2.8-14.9-8.4-21.4C2336.4,1046.4,2329.9,1043.6,2321.5,1043.6z"/>
	<path fill="#333846" d="M2469.5,1133c-14,0-30.7,4.7-40,14v-6.5H2383v176.9h46.5v-87.5c0-19.5,2.8-33.5,7.4-41.9
		c4.7-7.4,12.1-10.2,22.3-10.2c9.3,0,16.8,2.8,19.5,7.4c2.8,3.7,5.6,12.1,5.6,31.6v100.5h46.5v-109.8c0-25.1-4.7-42.8-14.9-54
		C2505.8,1140.4,2489,1133,2469.5,1133z"/>
	<path fill="#333846" d="M2690.1,1140.4v10.2c-18.6-11.2-28.9-16.8-46.5-16.8c-24.2,0-44.7,9.3-60.5,28.9
		c-14,17.7-20.5,40-20.5,65.2c0,26.1,7.4,48.4,22.3,66.1c14.9,17.7,34.4,26.1,58.6,26.1c16.8,0,28.9-5.6,47.5-17.7v13
		c0,42.8-21.4,47.5-37.2,47.5c-13,0-23.3-4.7-30.7-14c-2.8-3.7-5.6-10.2-6.5-17.7l-0.9-4.7h-46.5l0.9,5.6
		c1.9,23.3,11.2,41.9,26.1,54.9c14.9,13,33.5,19.5,56.8,19.5c27,0,48.4-9.3,64.2-27.9c8.4-9.3,14-21.4,16.8-34.4
		c0.9-4.7,1.9-10.2,2.8-16.8c0.9-6.5,0.9-13,0.9-21.4v-165.7h-47.6V1140.4z M2679.9,1261.4c-7.4,9.3-17.7,14-29.8,14
		c-13,0-22.3-4.7-29.8-14c-6.5-9.3-10.2-20.5-10.2-34.4s3.7-26.1,10.2-35.4c7.4-9.3,16.8-14.9,29.8-14.9c12.1,0,21.4,4.7,28.9,13
		c7.4,8.4,11.2,21.4,11.2,36.3C2690.1,1240.9,2687.3,1252.1,2679.9,1261.4z"/>
</g>
<g>
	<path fill="#333846" d="M2853.9,1177.6v-144.3h45.6c14.9,0,27,2.8,35.4,9.3s12.1,15.8,12.1,28.9c0,6.5-1.9,12.1-5.6,17.7
		c-3.7,4.7-9.3,8.4-15.8,11.2l0,0c8.4,1.9,14.9,5.6,20.5,12.1c4.7,6.5,7.4,14,7.4,23.3c0,13-3.7,23.3-12.1,29.8
		c-8.4,6.5-19.5,10.2-34.4,10.2h-53.1L2853.9,1177.6L2853.9,1177.6z M2871.6,1094.8h32.6c7.4,0,14-1.9,17.7-6.5
		c3.7-4.7,6.5-9.3,6.5-16.8c0-8.4-2.8-14-7.4-17.7c-4.7-3.7-12.1-5.6-22.3-5.6h-27.9v46.5L2871.6,1094.8L2871.6,1094.8z
		 M2871.6,1109.7v53.1h34.4c9.3,0,16.8-1.9,21.4-6.5c4.7-4.7,7.4-10.2,7.4-18.6s-1.9-14.9-6.5-20.5c-4.7-4.7-11.2-7.4-19.5-7.4
		L2871.6,1109.7L2871.6,1109.7z"/>
	<path fill="#333846" d="M3022.4,1179.5c-14.9,0-27-4.7-35.4-14.9s-13-22.3-13-38.2v-4.7c0-15.8,4.7-27.9,13-38.2
		c9.3-10.2,19.5-14.9,32.6-14.9c14.9,0,25.1,4.7,32.6,13s11.2,20.5,11.2,34.4v12.1h-70.7c0,11.2,2.8,19.5,8.4,26.1
		s12.1,10.2,22.3,10.2c6.5,0,12.1-0.9,16.8-2.8s9.3-4.7,13-7.4l7.4,12.1c-3.7,3.7-9.3,6.5-14.9,9.3
		C3039.2,1177.6,3031.7,1179.5,3022.4,1179.5z M3019.6,1083.6c-6.5,0-13,2.8-17.7,8.4s-7.4,13-9.3,21.4h52.1v-2.8
		c0-8.4-1.9-14.9-6.5-19.5C3034.5,1085.5,3028,1083.6,3019.6,1083.6z"/>
	<path fill="#333846" d="M3107.1,1044.5v26.1h20.5v14h-20.5v65.2c0,5.6,0.9,9.3,2.8,11.2c1.9,1.9,4.7,2.8,7.4,2.8c1.9,0,2.8,0,4.7,0
		s2.8-0.9,4.7-0.9l2.8,13c-1.9,0.9-3.7,1.9-7.4,2.8s-6.5,0.9-9.3,0.9c-7.4,0-13-1.9-17.7-6.5s-6.5-12.1-6.5-22.3v-65.2h-14.9v-14
		h14.9v-26.1h18.6v-1H3107.1z"/>
	<path fill="#333846" d="M3215.1,1177.6c-0.9-3.7-0.9-6.5-1.9-8.4c0-1.9-0.9-4.7-0.9-6.5c-3.7,4.7-8.4,9.3-14,12.1
		s-12.1,4.7-18.6,4.7c-11.2,0-19.5-2.8-25.1-8.4s-8.4-13-8.4-23.3c0-10.2,3.7-18.6,12.1-24.2c8.4-5.6,19.5-8.4,33.5-8.4h20.5V1104
		c0-6.5-1.9-11.2-5.6-14.9c-3.7-3.7-9.3-5.6-16.8-5.6c-6.5,0-12.1,1.9-16.8,4.7c-4.7,2.8-6.5,7.4-6.5,12.1H3148
		c0-8.4,3.7-15.8,12.1-22.3c7.4-6.5,17.7-9.3,30.7-9.3c12.1,0,22.3,2.8,29.8,9.3c7.4,5.6,11.2,14.9,11.2,27v51.2
		c0,3.7,0,7.4,0.9,11.2c0.9,3.7,0.9,7.4,1.9,10.2L3215.1,1177.6L3215.1,1177.6z M3182.5,1163.7c6.5,0,13-1.9,18.6-4.7
		c5.6-2.8,9.3-7.4,12.1-11.2v-19.5h-21.4c-8.4,0-14.9,1.9-19.5,5.6c-4.7,3.7-7.4,8.4-7.4,14c0,4.7,1.9,8.4,4.7,11.2
		S3176.9,1163.7,3182.5,1163.7z"/>
</g>
</svg>
