<?xml version="1.0" encoding="utf-8"?>
<!-- Generator: Adobe Illustrator 17.1.0, SVG Export Plug-In . SVG Version: 6.00 Build 0)  -->
<!DOCTYPE svg PUBLIC "-//W3C//DTD SVG 1.1//EN" "http://www.w3.org/Graphics/SVG/1.1/DTD/svg11.dtd">
<svg version="1.1" id="Layer_1" xmlns="http://www.w3.org/2000/svg" xmlns:xlink="http://www.w3.org/1999/xlink" x="0px" y="0px"
	 viewBox="0 0 362 59" enable-background="new 0 0 362 59" xml:space="preserve">
<rect x="10" y="7" transform="matrix(0.7071 0.7071 -0.7071 0.7071 19.3787 -9.7843)" fill="#FFFFFF" width="23" height="23"/>
<polygon fill="#FFFFFF" points="39,53.8 22.7,37.5 39,21.2 "/>
<polygon fill="#FFFFFF" points="3,21.2 19.3,37.5 3,53.8 "/>
<g>
	<path fill="#FFFFFF" d="M70.2,14c-1.7-0.6-3.9-1-6.7-1H57v30h6.3c2.8,0,5.1-0.4,6.6-0.9c1.7-0.5,3.3-1.6,4.9-3
		c3.1-2.8,4.6-6.5,4.6-11.1c0-4.5-1.5-8.2-4.4-11C73.6,15.6,71.9,14.5,70.2,14z M63.7,38H62V18h1.7c3.4,0,6,1,7.7,2.6
		c1.9,1.8,2.9,4.3,2.9,7.3c0,2.9-1,5.4-2.9,7.2c-0.9,0.9-2,1.7-3.2,2.1C67,37.6,65.5,38,63.7,38z"/>
	<path fill="#FFFFFF" d="M85.4,13.6c-0.9,0-1.6,0.3-2.2,0.9c-0.6,0.6-0.9,1.4-0.9,2.2c0,0.9,0.3,1.7,0.9,2.3
		c0.6,0.6,1.4,0.9,2.2,0.9c0.9,0,1.6-0.3,2.2-0.9c0.6-0.6,0.9-1.4,0.9-2.3c0-0.9-0.3-1.6-0.9-2.3C87,13.9,86.3,13.6,85.4,13.6z"/>
	<rect x="83" y="24" fill="#FFFFFF" width="5" height="19"/>
	<path fill="#FFFFFF" d="M98.2,23.8C97.9,24,97,24.2,97,24.6V24h-5v19h5V32.9c0-4.6,2.1-4.6,2.8-4.6c0.6,0,1.3,0.3,1.9,0.8l0.5,0.4
		l2.3-4.8l-0.4-0.2C102,23,99.8,23,98.2,23.8z"/>
	<path fill="#FFFFFF" d="M118.1,35.3c-0.8,1.3-1.5,2.1-2.1,2.6c-0.6,0.4-1.3,0.6-2.2,0.6c-1.2,0-2.1-0.2-2.8-1
		c-0.6-0.7-1-1.5-1.2-2.5h12.4l0-1.6c0-3.1-0.8-5.6-2.3-7.4c-1.6-1.8-3.7-2.7-6.4-2.7c-2.7,0-4.9,0.9-6.5,2.8
		c-1.6,1.8-2.4,4.3-2.4,7.2c0,3,0.8,5.4,2.5,7.2c1.7,1.8,3.9,2.7,6.6,2.7c0.9,0,1.8-0.1,2.6-0.3c0.8-0.2,1.6-0.5,2.3-1
		c0.7-0.4,1.4-1,2-1.7c0.6-0.7,1.2-1.5,1.7-2.5l0.2-0.4l-4.2-2.5L118.1,35.3z M110.3,30c0.1,0,0.2-0.3,0.3-0.5
		c0.2-0.4,0.5-0.6,0.8-0.8c0.3-0.3,0.6-0.4,1-0.5c0.4-0.1,0.8-0.3,1.2-0.3c1.7,0,2.8,1.2,3.4,2.2H110.3z"/>
	<path fill="#FFFFFF" d="M134.8,23.2c-2.8,0-5.2,1-7.1,2.9c-1.9,1.9-2.9,4.3-2.9,7.2c0,2.8,1,5.2,2.9,7.1c1.9,1.9,4.3,2.8,7.1,2.8
		c1.7,0,3.3-0.5,5-1.4l0.2-0.1v-7.2l-0.8,1.1c-0.9,1.2-1.7,1.9-2.3,2.3c-0.7,0.4-1.4,0.6-2.3,0.6c-1.4,0-2.5-0.5-3.3-1.5
		c-0.9-1-1.3-2.3-1.3-3.8c0-1.5,0.5-2.8,1.4-3.8c0.9-1,2-1.5,3.4-1.5c0.9,0,1.6,0.2,2.3,0.6c0.7,0.4,1.4,1.2,2.2,2.3L140,32v-7.3
		l-0.2-0.1C138.2,23.7,136.6,23.2,134.8,23.2z"/>
	<polygon fill="#FFFFFF" points="148,17 143,17 143,24 141,24 141,29 143,29 143,43 148,43 148,29 151,29 151,24 148,24 	"/>
	<path fill="#FFFFFF" d="M175.7,24.8l-2.7-1.2c-1.8-0.8-2.7-1.7-2.7-2.9c0-0.9,0.3-1.6,1-2.1c0.7-0.6,1.5-0.9,2.5-0.9
		c0.8,0,1.5,0.2,2,0.5c0.3,0.2,0.9,0.7,1.6,2l0.3,0.5l4.2-2.6l-0.2-0.4c-1.9-3.4-4.5-5.1-7.9-5.1c-2.5,0-4.6,0.8-6.2,2.3
		c-1.7,1.5-2.5,3.5-2.5,5.8c0,3.4,2,6,6,7.7l2.7,1.1c0.7,0.3,1.2,0.6,1.7,0.9c0.5,0.3,0.8,0.6,1.1,1c0.3,0.3,0.5,0.7,0.6,1.1
		c0.1,0.4,0.2,0.9,0.2,1.4c0,1.3-0.4,2.3-1.1,3.1c-0.8,0.8-1.7,1.2-2.9,1.2c-1.5,0-2.6-0.5-3.3-1.6c-0.3-0.4-0.7-1.3-0.9-3.2
		l-0.1-0.6l-5.2,1.2l0.1,0.5c0.4,2.8,1.4,4.9,3,6.5c1.6,1.5,3.8,2.3,6.3,2.3c2.7,0,4.9-0.9,6.7-2.7c1.8-1.8,2.7-4.1,2.7-6.9
		c0-2.1-0.6-3.8-1.7-5.3C179.7,27,178,25.8,175.7,24.8z"/>
	<path fill="#FFFFFF" d="M195.7,23.2c-1.8,0-3.7,0.6-4.7,1.8V24h-5v29h5V41.4c1,1.2,3,1.9,4.8,1.9c2.5,0,4.5-1,6.2-2.9
		c1.6-1.9,2.4-4.3,2.4-7.1c0-2.9-0.8-5.3-2.4-7.2C200.3,24.2,198.3,23.2,195.7,23.2z M191.7,29.4c0.8-1,1.9-1.4,3.2-1.4
		c1.2,0,2.3,0.5,3.1,1.5c0.8,1,1.2,2.3,1.2,3.9c0,1.5-0.4,2.7-1.3,3.7c-0.8,1-1.8,1.4-3.1,1.4c-1.3,0-2.4-0.5-3.2-1.4
		c-0.8-1-1.3-2.3-1.3-3.9C190.5,31.7,190.9,30.4,191.7,29.4z"/>
	<path fill="#FFFFFF" d="M220,25.1c-1-1.3-2.9-1.9-4.7-1.9c-2.5,0-4.5,1-6.1,2.9c-1.6,1.9-2.4,4.3-2.4,7.1c0,2.9,0.9,5.3,2.5,7.2
		c1.7,1.9,3.6,2.9,6.1,2.9c1.7,0,3.6-0.6,4.6-1.8V43h5V24h-5V25.1z M219.4,37.1c-0.8,1-1.9,1.4-3.2,1.4c-1.2,0-2.3-0.5-3.1-1.5
		c-0.8-1-1.2-2.3-1.2-3.9c0-1.5,0.4-2.7,1.3-3.7c0.8-1,1.8-1.5,3.1-1.5c1.3,0,2.4,0.5,3.2,1.4c0.8,1,1.3,2.3,1.3,3.9
		C220.7,34.8,220.2,36.1,219.4,37.1z"/>
	<path fill="#FFFFFF" d="M238.7,23.2c-2.8,0-5.2,1-7.1,2.9c-1.9,1.9-2.9,4.3-2.9,7.2c0,2.8,1,5.2,2.9,7.1c1.9,1.9,4.3,2.8,7.1,2.8
		c1.7,0,3.4-0.5,5.1-1.4l0.2-0.1v-7.2l-0.9,1.1c-0.9,1.2-1.7,1.9-2.4,2.3c-0.7,0.4-1.4,0.6-2.3,0.6c-1.4,0-2.5-0.5-3.4-1.5
		c-0.9-1-1.3-2.3-1.3-3.8c0-1.5,0.4-2.8,1.4-3.8c0.9-1,2-1.5,3.4-1.5c0.9,0,1.6,0.2,2.3,0.6c0.7,0.4,1.4,1.2,2.3,2.3L244,32v-7.3
		l-0.2-0.1C242.2,23.7,240.5,23.2,238.7,23.2z"/>
	<rect x="247" y="24" fill="#FFFFFF" width="5" height="19"/>
	<path fill="#FFFFFF" d="M249.4,13.6c-0.9,0-1.6,0.3-2.2,0.9c-0.6,0.6-0.9,1.4-0.9,2.2c0,0.9,0.3,1.7,0.9,2.3
		c0.6,0.6,1.4,0.9,2.2,0.9c0.9,0,1.6-0.3,2.2-0.9c0.6-0.6,0.9-1.4,0.9-2.3c0-0.9-0.3-1.6-0.9-2.3C251,13.9,250.3,13.6,249.4,13.6z"
		/>
	<path fill="#FFFFFF" d="M265.3,23.2c-1.5,0-3.3,0.5-4.3,1.5V24h-5v19h5v-9.4c0-2.1,0.3-3.6,0.8-4.5c0.5-0.8,1.3-1.1,2.4-1.1
		c1,0,1.8,0.3,2.1,0.8c0.3,0.4,0.6,1.3,0.6,3.4V43h5V31.2c0-2.7-0.5-4.6-1.6-5.8C269.2,24,267.4,23.2,265.3,23.2z"/>
	<path fill="#FFFFFF" d="M289,24v1.1c-2-1.2-3.1-1.8-5-1.8c-2.6,0-4.8,1-6.5,3.1c-1.5,1.9-2.2,4.3-2.2,7c0,2.8,0.8,5.2,2.4,7.1
		c1.6,1.9,3.7,2.8,6.3,2.8c1.8,0,3.1-0.6,5.1-1.9v1.4c0,4.6-2.3,5.1-4,5.1c-1.4,0-2.5-0.5-3.3-1.5c-0.3-0.4-0.6-1.1-0.7-1.9L281,44
		h-5l0.1,0.6c0.2,2.5,1.2,4.5,2.8,5.9c1.6,1.4,3.6,2.1,6.1,2.1c2.9,0,5.2-1,6.9-3c0.9-1,1.5-2.3,1.8-3.7c0.1-0.5,0.2-1.1,0.3-1.8
		c0.1-0.7,0.1-1.4,0.1-2.3V24H289z M287.9,37c-0.8,1-1.9,1.5-3.2,1.5c-1.4,0-2.4-0.5-3.2-1.5c-0.7-1-1.1-2.2-1.1-3.7
		c0-1.5,0.4-2.8,1.1-3.8c0.8-1,1.8-1.6,3.2-1.6c1.3,0,2.3,0.5,3.1,1.4c0.8,0.9,1.2,2.3,1.2,3.9C289,34.8,288.7,36,287.9,37z"/>
</g>
<g>
	<path fill="#FFFFFF" d="M306.6,28V12.5h4.9c1.6,0,2.9,0.3,3.8,1c0.9,0.7,1.3,1.7,1.3,3.1c0,0.7-0.2,1.3-0.6,1.9
		c-0.4,0.5-1,0.9-1.7,1.2v0c0.9,0.2,1.6,0.6,2.2,1.3c0.5,0.7,0.8,1.5,0.8,2.5c0,1.4-0.4,2.5-1.3,3.2s-2.1,1.1-3.7,1.1H306.6z
		 M308.5,19.1h3.5c0.8,0,1.5-0.2,1.9-0.7s0.7-1,0.7-1.8c0-0.9-0.3-1.5-0.8-1.9c-0.5-0.4-1.3-0.6-2.4-0.6h-3V19.1z M308.5,20.7v5.7
		h3.7c1,0,1.8-0.2,2.3-0.7s0.8-1.1,0.8-2c0-0.9-0.2-1.6-0.7-2.2c-0.5-0.5-1.2-0.8-2.1-0.8H308.5z"/>
	<path fill="#FFFFFF" d="M324.7,28.2c-1.6,0-2.9-0.5-3.8-1.6s-1.4-2.4-1.4-4.1V22c0-1.7,0.5-3,1.4-4.1c1-1.1,2.1-1.6,3.5-1.6
		c1.6,0,2.7,0.5,3.5,1.4c0.8,0.9,1.2,2.2,1.2,3.7v1.3h-7.6c0,1.2,0.3,2.1,0.9,2.8c0.6,0.7,1.3,1.1,2.4,1.1c0.7,0,1.3-0.1,1.8-0.3
		c0.5-0.2,1-0.5,1.4-0.8l0.8,1.3c-0.4,0.4-1,0.7-1.6,1C326.5,28,325.7,28.2,324.7,28.2z M324.4,17.9c-0.7,0-1.4,0.3-1.9,0.9
		c-0.5,0.6-0.8,1.4-1,2.3h5.6v-0.3c0-0.9-0.2-1.6-0.7-2.1C326,18.1,325.3,17.9,324.4,17.9z"/>
	<path fill="#FFFFFF" d="M333.8,13.7v2.8h2.2V18h-2.2v7c0,0.6,0.1,1,0.3,1.2c0.2,0.2,0.5,0.3,0.8,0.3c0.2,0,0.3,0,0.5,0
		c0.2,0,0.3-0.1,0.5-0.1l0.3,1.4c-0.2,0.1-0.4,0.2-0.8,0.3s-0.7,0.1-1,0.1c-0.8,0-1.4-0.2-1.9-0.7c-0.5-0.5-0.7-1.3-0.7-2.4v-7h-1.6
		v-1.5h1.6v-2.8H333.8z"/>
	<path fill="#FFFFFF" d="M345.4,28c-0.1-0.4-0.1-0.7-0.2-0.9c0-0.2-0.1-0.5-0.1-0.7c-0.4,0.5-0.9,1-1.5,1.3c-0.6,0.3-1.3,0.5-2,0.5
		c-1.2,0-2.1-0.3-2.7-0.9c-0.6-0.6-0.9-1.4-0.9-2.5c0-1.1,0.4-2,1.3-2.6s2.1-0.9,3.6-0.9h2.2v-1.2c0-0.7-0.2-1.2-0.6-1.6
		c-0.4-0.4-1-0.6-1.8-0.6c-0.7,0-1.3,0.2-1.8,0.5c-0.5,0.3-0.7,0.8-0.7,1.3h-2c0-0.9,0.4-1.7,1.3-2.4c0.8-0.7,1.9-1,3.3-1
		c1.3,0,2.4,0.3,3.2,1c0.8,0.6,1.2,1.6,1.2,2.9v5.5c0,0.4,0,0.8,0.1,1.2s0.1,0.8,0.2,1.1H345.4z M341.9,26.5c0.7,0,1.4-0.2,2-0.5
		s1-0.8,1.3-1.2v-2.1h-2.3c-0.9,0-1.6,0.2-2.1,0.6s-0.8,0.9-0.8,1.5c0,0.5,0.2,0.9,0.5,1.2S341.3,26.5,341.9,26.5z"/>
</g>
</svg>
