<?xml version="1.0" encoding="utf-8"?>
<!-- Generator: Adobe Illustrator 17.1.0, SVG Export Plug-In . SVG Version: 6.00 Build 0)  -->
<!DOCTYPE svg PUBLIC "-//W3C//DTD SVG 1.1//EN" "http://www.w3.org/Graphics/SVG/1.1/DTD/svg11.dtd">
<svg version="1.1" id="Layer_1" xmlns="http://www.w3.org/2000/svg" xmlns:xlink="http://www.w3.org/1999/xlink" x="0px" y="0px"
	 viewBox="0 0 281 293" enable-background="new 0 0 281 293" xml:space="preserve">
<g>
	<g id="layer1" transform="translate(0,-540.36218)">
		<g id="g4305">
			<g id="g4345" transform="translate(28,-40.00001)">
				<g id="text2994">
					<g id="g3830" transform="translate(0,15.24359)">
						<g id="g3838">
							<g id="g3785">
								<path id="rect3010" fill="#333846" d="M66.2,572.6c-5.4,0-10.7,2.1-14.5,5.7c-3.8,3.6-6,8.6-6,13.7v239.2
									c0,5.1,2.2,10.1,6,13.7c3.8,3.6,9.1,5.7,14.5,5.7h102.7c5.4,0,10.7-2.1,14.5-5.7c3.8-3.6,6-8.6,6-13.7V592
									c0-5.1-2.2-10.1-6-13.7c-3.8-3.6-9.1-5.7-14.5-5.7H66.2z M107.3,585.5c0,0,0.1,0,0.1,0c0.1,0,0.2,0,0.3,0h19.4
									c1.8,0,3.3,1.4,3.3,3.2c0,1.8-1.4,3.3-3.2,3.3c0,0-0.1,0-0.1,0h-19.4c-1.8,0.1-3.3-1.2-3.5-3S105.6,585.7,107.3,585.5z
									 M56.1,604.9h122.8v210.1H56.1V604.9z M117.5,821.5c5.4,0,9.7,4.3,9.7,9.7c0,5.4-4.3,9.7-9.7,9.7s-9.7-4.3-9.7-9.7
									C107.8,825.9,112.1,821.5,117.5,821.5z"/>
							</g>
						</g>
					</g>
					<g id="layer1-4" transform="translate(539.77941,-13.359245)">
						<g id="layer1-5" transform="translate(-573.14286,170.28574)">
						</g>
					</g>
				</g>
			</g>
		</g>
	</g>
</g>
<g>
	<path fill="#E6B800" d="M195,108.3c-30.5,18.7-52.6,42.3-62.5,54.1l-24.3-19.1L97.4,152l42,42.8c7.2-18.5,30.2-54.8,58.1-80.5
		L195,108.3z"/>
</g>
</svg>
