<?xml version="1.0" encoding="utf-8"?>
<!-- Generator: Adobe Illustrator 17.1.0, SVG Export Plug-In . SVG Version: 6.00 Build 0)  -->
<!DOCTYPE svg PUBLIC "-//W3C//DTD SVG 1.1//EN" "http://www.w3.org/Graphics/SVG/1.1/DTD/svg11.dtd">
<svg version="1.1" id="Layer_1" xmlns="http://www.w3.org/2000/svg" xmlns:xlink="http://www.w3.org/1999/xlink" x="0px" y="0px"
	 viewBox="0 0 902.5 941" enable-background="new 0 0 902.5 941" xml:space="preserve">
<path fill="#F9D762" d="M925.7-23h-442c-8.1,0-14.8,6.1-15.8,13.9c-2.1-6.3-8.1-10.9-15.2-10.9h-226c-8.8,0-16,7.2-16,16v-6
	c0-8.8-7.2-16-16-16h-228c-8.8,0-16,7.2-16,16v387c0,8.8,7.2,16,16,16c0,0,508.2,329,517,329h442c8.8,0,16-7.2,16-16V-7
	C941.7-15.8,934.6-23,925.7-23z"/>
<image display="none" overflow="visible" width="800" height="600" xlink:href="../../../Downloads/347_re-paint-floydworx.png"  transform="matrix(2.3531 0 0 2.3531 -952.2697 -235.8333)">
</image>
<rect x="756.7" y="284" fill="none" width="30" height="8"/>
<path fill="#FAFAFA" d="M-10.3,418v534h924V580L270.5,311c0,0-32.1-14-73.1,6S-10.3,418-10.3,418z"/>
<path fill="#E5E5E5" d="M-21.3,547.5l204-107.2c0,0,20-9.1,44,1.9s683,320.4,683,320.4l-1,189.4h-926L-21.3,547.5z"/>
<path fill="#EAEAEA" d="M-21.3,569.5l204-107.2c0,0,20-9.1,44,1.9s683,320.4,683,320.4l-1,189.4h-926L-21.3,569.5z"/>
<path fill="#F2F2F2" d="M898.7,795l-678-318c0,0-6.2-1.5-12,1c-9.2,4,4,113,46,195c26.5,51.8,121,139,218,178
	c118.7,47.7,221,46,295,28C833.9,862.9,875.7,823,898.7,795z"/>
<path fill="#E5E5E5" d="M118.7,367l93-46c0,0,33-12,63,1s170,80,170,80s-165.2-72.2-174.7-76.3c-8.3-3.7-33-9.7-59.3,1.3
	C172.5,343,118.7,367,118.7,367z"/>
<g>
	<path fill="#BFB8B4" d="M464.1,618.5c0-0.3,0-0.6,0-0.9c-2.6-0.4-5.3-0.1-7.6,1.2c-6.8,3.6-8.7,13.5-4.1,22
		c4.6,8.5,13.8,12.5,20.6,8.8c3-1.6,5-4.4,6-7.7C470.6,640.6,464.1,630.6,464.1,618.5z"/>
	<path fill="#595252" d="M477.1,627.6c-3-5.6-8-9.2-13-10c0,0.3,0,0.6,0,0.9c0,12.1,6.5,22.1,14.9,23.4
		C480.2,637.6,479.6,632.4,477.1,627.6z"/>
</g>
<g>
	<path fill="#BFB8B4" d="M500.1,639.3c0-1.3,0.1-2.6,0.3-3.9c-2.4-0.2-4.7,0.2-6.8,1.3c-6.8,3.6-8.7,13.5-4.1,22
		c4.6,8.5,13.8,12.5,20.6,8.8c2.6-1.4,4.5-3.6,5.6-6.6c0,0,0,0,0,0C507,661,500.1,651.3,500.1,639.3z"/>
	<path fill="#595252" d="M514.1,645.6c-3.1-5.9-8.5-9.6-13.8-10.1c-0.2,1.3-0.3,2.6-0.3,3.9c0,12,6.9,21.7,15.5,21.7c0,0,0,0,0,0
		C517.3,656.5,516.9,650.8,514.1,645.6z"/>
</g>
<g>
	<path fill="#BFB8B4" d="M540.7,656.3c0-0.6,0-1.2,0.1-1.8c-2.5-0.3-5.1,0-7.3,1.2c-6.8,3.6-8.7,13.5-4.1,22
		c4.6,8.5,13.8,12.5,20.6,8.8c2.3-1.2,4-3.1,5.1-5.5C546.7,677.5,540.7,667.8,540.7,656.3z"/>
	<path fill="#595252" d="M554.1,664.6c-3-5.7-8.2-9.3-13.3-10c0,0.6-0.1,1.2-0.1,1.8c0,11.4,6,21.1,14.4,24.8
		C557.3,676.5,557.1,670.2,554.1,664.6z"/>
</g>
<g>
	<path fill="#EAEAEA" d="M599.3,489.5l5.4,13.5h0c0,0,0,0.5,0,0.7c0,22-23.5,40-52.5,40c-24.8,0-45.6-13.1-51.1-30.7l-0.4,1.2
		l110.9,107L944.7,777L599.3,489.5z"/>
</g>
<path fill="#686464" d="M604.7,240h-105v49.4l1.8,1.2l-0.9,4.5l-0.9,1.4V503h0c0,0,0,0.6,0,0.7c0,22,23.5,40,52.5,40
	s52.5-18,52.5-40c0-0.1,0-0.7,0-0.7h0V296.3l-0.9-0.8l-0.9-5.3l1.8-0.8V240z"/>
<ellipse fill="#9B9491" cx="552.2" cy="241" rx="52.5" ry="21.6"/>
<g>
	<path fill="#443F3F" d="M552.2,310.3c-24.9,0-45.7-10.4-50.7-19.5c-0.7,1.4-1.7,2-1.1,3.4c4.4,11.1,23.2,20.1,51.8,20.1
		s46.5-9,51.8-20.1c0.6-1.3-0.4-2-1.1-3.4C597.9,299.9,577.1,310.3,552.2,310.3z"/>
</g>
<g>
	<path fill="#9B9491" d="M548.8,337.8c-7.4-13.6-23.6-19.8-36-13.9c-0.6,0.3-1.2,0.6-1.7,0.9l-0.2-0.4L378.9,388
		c11.2-0.4,28.5,8.5,33.3,23.3c4.2,12.8-3.7,29.2-10.5,35.9l137.1-73.5l-0.1-0.2c0.3-0.1,0.7-0.3,1-0.4
		C552.1,367.1,556.2,351.3,548.8,337.8z"/>
	<path fill="#BFB8B4" d="M399.8,447.7c2.8-0.8,5.3-2.3,7.4-4.3l-8.7,4.6C398.9,447.9,399.3,447.8,399.8,447.7z"/>
	<path fill="#847979" d="M412.2,411.3c-4.8-14.8-16.7-24.8-27.9-24.5c-1.4,0-2.8,0.2-4.2,0.6c-3.5,1-6.4,3-8.7,5.7
		c-5.9,7-7.6,18.7-3.7,30.7c5.2,16,18.7,26.5,30.7,24.2l8.7-4.6C414,436.7,416.4,424.1,412.2,411.3z"/>
</g>
<g>
	<path fill="#9B9491" d="M721.7,336.1c0.8-3.4,2.8-6.2,5.1-7.3c0.5-0.2,1-0.4,1.6-0.4l-131.1-51.7c-1-0.7-2.3-1.2-3.7-1.5l-1.1-0.4
		l-0.1,0.3c-1.2-0.1-2.5,0.1-3.7,0.4c-5,1.4-8.1,5.6-7,9.4c0.6,2.2,2.6,3.8,5.1,4.5l-0.1,0.2l136,53.6
		C721.5,341.5,721.1,338.9,721.7,336.1z"/>
	<path fill="#9B9491" d="M727.1,345c0,0-0.1-0.1-0.1-0.1c0,0-0.1,0-0.1,0L727.1,345z"/>
	<path fill="#686464" d="M725.4,345c0.5,0.1,1,0,1.5-0.1l-4.3-1.7C723.3,344.2,724.3,344.9,725.4,345z"/>
	<path fill="#686464" d="M729.1,328.3c-0.3,0-0.5,0-0.8,0l3.2,1.3C730.9,328.9,730.1,328.4,729.1,328.3z"/>
	<path fill="#686464" d="M733.1,333.8c-0.1-1.8-0.7-3.2-1.6-4.2l-3.2-1.3c-0.5,0.1-1,0.2-1.6,0.4c-2.3,1.1-4.3,3.9-5.1,7.3
		c-0.6,2.8-0.2,5.4,0.9,7.1l4.3,1.7c0,0,0.1,0,0.1,0c0.1,0,0.3-0.1,0.4-0.1c1.1-0.4,2.1-1.2,2.9-2.3c1.1-1.4,2-3.2,2.5-5.2
		c0.1-0.4,0.1-0.7,0.2-1.1C733.1,335.3,733.2,334.6,733.1,333.8z"/>
</g>
</svg>
