<?xml version="1.0" encoding="utf-8"?>
<!-- Generator: Adobe Illustrator 17.1.0, SVG Export Plug-In . SVG Version: 6.00 Build 0)  -->
<!DOCTYPE svg PUBLIC "-//W3C//DTD SVG 1.1//EN" "http://www.w3.org/Graphics/SVG/1.1/DTD/svg11.dtd">
<svg version="1.1" id="Layer_1" xmlns="http://www.w3.org/2000/svg" xmlns:xlink="http://www.w3.org/1999/xlink" x="0px" y="0px"
	 viewBox="0 0 281 293" enable-background="new 0 0 281 293" xml:space="preserve">
<image display="none" overflow="visible" width="128" height="128" xlink:href="../../09_search-128.png"  transform="matrix(2.125 0 0 2.125 5 14)">
</image>
<path fill="#333846" d="M232.4,48C183.9-4.7,101.6-8.1,48.9,40.3C-3.8,88.8-7.3,171.2,41.2,223.9c45.9,49.9,122.1,55.7,174.9,15
	l39,42.5c4.3,4.7,11.7,5,16.4,0.7s5-11.7,0.7-16.4l-39.1-42.5C277.7,174,278.2,97.8,232.4,48z M212.9,218.7
	c-45.6,42-116.9,39-158.8-6.7c-42-45.6-39-116.9,6.7-158.8c45.6-42,116.9-39,158.8,6.7C261.5,105.5,258.5,176.8,212.9,218.7z"/>
<g>
	<path fill="#E6B800" d="M146.6,47.9V65c6.9,1.1,12.5,3.4,16.8,6.8c4.4,3.4,8.5,8.7,12.5,15.8l-17,9.5c-5.1-9.3-11.8-14-20.1-14
		c-5.1,0-9.4,1.5-12.7,4.5c-3.4,3-5.1,6.8-5.1,11.3c0,4.1,1.4,7.6,4.1,10.3c2.7,2.7,8.1,5.8,16.2,9.5c7,3.2,12.9,6.2,17.4,9
		c4.6,2.8,8.1,5.5,10.4,8.2c6.6,7.1,9.9,15.7,9.9,25.7c0,9.9-3,18.6-8.9,26.2c-5.9,7.5-13.7,12.6-23.6,15.2v18.1h-15.3v-17.5
		c-11.4-1.9-20.1-5.8-26.1-11.8c-6-6-10.4-15.2-13.3-27.7l19.2-4c2.6,8.8,5.8,15.2,9.6,18.9c4,3.6,9.2,5.4,15.8,5.4
		c6.4,0,11.7-2.1,16.1-6.2c4.2-4.1,6.4-9.3,6.4-15.8c0-5.8-1.8-10.4-5.3-13.9c-1.8-1.7-4.5-3.6-8-5.7c-3.5-2.1-8-4.4-13.5-6.9
		c-11.3-5.1-18.7-9.7-22.2-14c-5.6-6.3-8.5-13.9-8.5-22.8c0-4.2,0.7-8.1,2-11.7c1.3-3.6,3.3-6.9,5.8-9.8c2.5-2.9,5.7-5.5,9.4-7.6
		c3.7-2.2,7.9-3.8,12.7-5.1V47.9H146.6z"/>
</g>
</svg>
