<?xml version="1.0" encoding="utf-8"?>
<!-- Generator: Adobe Illustrator 17.1.0, SVG Export Plug-In . SVG Version: 6.00 Build 0)  -->
<!DOCTYPE svg PUBLIC "-//W3C//DTD SVG 1.1//EN" "http://www.w3.org/Graphics/SVG/1.1/DTD/svg11.dtd">
<svg version="1.1" id="Creative_Research" xmlns="http://www.w3.org/2000/svg" xmlns:xlink="http://www.w3.org/1999/xlink" x="0px"
	 y="0px" viewBox="0 0 128 128" enable-background="new 0 0 128 128" xml:space="preserve">
<path id="Background" fill="#F3F3F3" d="M64,0C99.3,0,128,28.7,128,64.1S99.3,128,64,128S0,99.4,0,64.1S28.6,0,64,0z"/>
<g id="Creative_Research_1_">
	<path fill="#333846" d="M55.2,8.7l7.7,9.8c0.1,0.1,0.2,0.2,0.2,0.4V97c0,0.2-0.1,0.4-0.2,0.6c-0.3,1.3-1.8,2-3,2.4
		c-1.7,0.5-3.5,0.6-5.2,0.6c-1.7,0-3.6-0.2-5.2-0.7c-1.2-0.3-2.8-1.1-3.1-2.4c0-0.1-0.1-0.3-0.1-0.5c0,0,0,0,0-0.1V18.6
		c0-0.1,0.1-0.3,0.1-0.4l0.6-0.8l7.1-8.8c0.2-0.2,0.3-0.3,0.5-0.3C54.9,8.4,55,8.5,55.2,8.7z M56.5,11.3l5.3,6.8l0.6,0.8v72.9V94
		v2.9c0,4.1-15.4,4-15.4,0.1v-0.1V94v-2.2V18.6l0.6-0.8l5.2-6.6L54.7,9L56.5,11.3z"/>
	<polygon fill="#FFCC99" points="62.4,18.9 47,18.6 54.7,9 	"/>
	<polygon fill="#4D4D4D" points="52.8,11.3 54.7,9 56.5,11.3 	"/>
	<path fill="#FFCC99" d="M62.4,18.9L47,18.6l0.6-0.8c0.7-0.4,1.8-0.9,2.8-1c1.4-0.3,2.9,1.1,4,1.2c1.2,0.1,2.8-1.2,3.8-1.4
		c0.6-0.1,2.3,0.7,3.5,1.5L62.4,18.9z"/>
	<path fill="#FFE344" d="M62.4,18.9v78.1c0,4.1-15.4,4-15.4,0V18.6c2.1-0.3,3.1-1.4,3.8-1.4s2.1,1.4,3.8,1.4s3.2-1.7,3.8-1.4
		C59.2,17.6,60.7,18.2,62.4,18.9z"/>
	<path fill="#F1CF5F" d="M52.2,17.8c0.7,0.4,1.6,0.8,2.5,0.8s1.8-0.5,2.5-1v74.1h-5.1V17.8z"/>
	<path fill="#E6B800" d="M62.4,18.9v72.9h-5.2V17.6c0.5-0.3,1-0.5,1.3-0.4C59.2,17.6,60.7,18.2,62.4,18.9z"/>
	<polygon fill="#CFA600" points="62.4,91.8 62.4,94 47,94 47,91.8 	"/>
	<path fill="#CC3300" d="M62.4,94v2.9c0,4.1-15.4,4-15.4,0V94H62.4z"/>
	<polygon fill="#D5AB05" points="62.4,49.3 62.4,52.4 47,52.4 47,49.3 	"/>
	<polygon fill="#EBBD05" points="57.2,49.3 57.2,52.4 52.2,52.4 52.2,49.3 	"/>
	<polygon fill="#D5AB05" points="62.4,49.3 62.4,52.4 57.2,52.4 57.2,49.3 	"/>
	<polygon fill="#CED2D9" points="66.4,18.9 72,21.2 72,18.9 73.8,22 73.8,113 66.4,109.9 	"/>
	<path fill="#E6E6E6" d="M30.8,95.3h51c0.4,0,0.8,0.3,1,0.8l5,18.5c0.2,0.7-0.3,1.3-1,1.3l-67.4-0.1c-0.8,0-1.3-0.9-0.9-1.6
		l11.4-18.5C30.1,95.5,30.4,95.3,30.8,95.3z"/>
	<polygon fill="#E6E6E6" points="64.6,18.9 72,18.9 72,109.9 64.6,109.9 	"/>
	<path fill="#CED2D9" d="M72,26.3v2L64.6,25v-2.1L72,26.3z M72,28.5v2.1l-7.4,3.6v-2.1L72,28.5z M72,41.2v2.1l-7.4-3.6v-2.1L72,41.2
		z M72,43.5v2l-7.4,3.4v-2.1L72,43.5z M72,56.3v2.1L64.5,55v-2L72,56.3z M72,58.6v2.1l-7.4,3.6v-2.1L72,58.6z M72,71.2v2.1l-7.4-3.6
		v-2.1L72,71.2z M72,73.5v2.1l-7.4,3.4v-2.1L72,73.5z M72,86.4v2.1l-7.4-3.4V83L72,86.4z M72,88.6v2.1l-7.4,3.6v-2L72,88.6z
		 M72,101.3v2.1l-7.4-3.7v-2.1L72,101.3z M72,103.6v2.1l-7.4,3.4v-2.1L72,103.6z"/>
	<path fill="#CED2D9" d="M18.6,115.8h68.5c0.6,0,1,0.4,1,1v0.5c0,0.6-0.4,1-1,1H18.6c-0.5,0-1-0.4-1-1v-0.5
		C17.6,116.2,18,115.8,18.6,115.8z"/>
	<g>
		<path fill="#E6E6E6" d="M77.9,100.7c0-3.6-2.9-6.5-6.4-6.5c-0.4,0-0.9,0.1-1.3,0.2c-0.4,0.1-0.8,0-1-0.3c-0.8-0.9-1.8-1.4-3.1-1.4
			c-0.4,0-0.8,0.1-1.2,0.2c-0.3,0.1-0.6,0-0.9-0.2c-1.2-0.9-2.8-1.5-4.5-1.5c-0.9,0-1.7,0.2-2.5,0.4c-0.3,0.1-0.7,0.1-1-0.2
			c-1.2-0.9-2.8-1.5-4.5-1.5s-3.2,0.6-4.5,1.5c-0.2,0.2-0.6,0.3-0.9,0.2c-0.4-0.1-0.8-0.2-1.2-0.2c-1.2,0-2.3,0.6-3.1,1.4
			c-0.2,0.3-0.6,0.4-1,0.3c-0.4-0.1-0.8-0.2-1.3-0.2c-3.5,0-6.4,2.9-6.4,6.5c0,0.9,0.2,1.9,0.6,2.7c0.1,0.2,0.1,0.5,0,0.7
			c-0.2,0.7-0.3,1.4-0.3,2.2c0,0.1,0,0.2,0,0.3c-0.6-0.6-1.4-1-2.4-1c-0.7,0-1.3,0.2-1.9,0.6c-0.3,0.2-0.7,0.2-1,0.1
			c-0.4-0.2-0.9-0.3-1.4-0.3c-1.8,0-3.2,1.4-3.2,3.2c0,0.9,0.3,1.7,0.9,2.2c0.3,0.3,0.3,0.8,0.1,1.2c-0.2,0.3-0.3,0.8-0.3,1.2
			c0,0.2,0,0.5,0.1,0.7c0,0.2,0,0.4,0,0.7c-0.1,0.3-0.1,0.6-0.1,0.9c0,1.1,0.7,2,1.6,2.4c0.1,0.1,0.2,0.1,0.4,0.1h0.2
			c0.3,0,0.5-0.1,0.8-0.1c0.1,0.1,0.1,0.2,0.1,0.2c0.1,0,0.1,0,0.2-0.1c0,0,0,0,0,0c0.5,0.2,0.9,0.4,1.4,0.7c0.1,0,0.2-0.1,0.4-0.1
			c0,0.1,0,0.1,0.1,0.1c0.1,0.1,0.3,0.1,0.5,0.2c0.2,0.2,0.5,0.2,0.7,0.3c0.1,0.1,0.2,0.1,0.4,0.1h0.3c1.2,0,2.2-0.7,2.7-1.7
			c0.2-0.4,0.5-0.6,1-0.6c0,0,0,0,0.1,0c0.2,0,0.3-0.1,0.4-0.1c0.1,0,0.2,0,0.2-0.1c0.4-0.1,0.7-0.3,1-0.6c0.1,0,0.2,0.1,0.2,0.1
			c0.1-0.1,0.1-0.1,0.2-0.2c0.2,0.1,0.4,0.2,0.6,0.2c0.1,0,0.2,0,0.2,0c0.3-0.2,0.6-0.3,0.8-0.7c0.1,0,0.2,0.1,0.2,0.1
			c0.1-0.1,0.1-0.1,0.1-0.1c0.2,0.1,0.5,0.1,0.8,0.1c0.1,0,0.3-0.1,0.4-0.1c1-0.3,1.8-1.3,1.8-2.5c0-0.1,0-0.2,0-0.4
			c0-0.4,0.2-0.9,0.6-1.1c0.6-0.3,1.2-0.7,1.7-1.1c0.3-0.3,0.8-0.3,1.2-0.1c1.2,0.7,2.6,1.2,4.1,1.2c1.8,0,3.5-0.6,4.8-1.7
			c0.4-0.3,1-0.2,1.4,0.2c1.4,1.7,3.5,2.7,5.8,2.7c1.5,0,2.9-0.4,4.1-1.2c0.4-0.2,0.9-0.2,1.2,0.1c1.1,1.1,2.6,1.7,4.3,1.7
			c3.5,0,6.3-2.9,6.3-6.4c0-0.8-0.1-1.5-0.3-2.2c-0.1-0.2-0.1-0.5,0-0.7C77.7,102.6,77.9,101.6,77.9,100.7z"/>
		<path fill="#333846" d="M31.4,118.8h-0.5l0,0c-0.3-0.1-0.8-0.3-1.1-0.6h-0.1c-0.1,0-0.2,0-0.2-0.1c-0.2,0.1-0.4,0.1-0.6,0.1h-0.3
			c-0.3-0.1-0.6-0.3-0.9-0.6c0,0,0,0-0.1,0c-0.1,0-0.2-0.1-0.2-0.1c-0.2,0.1-0.4,0.1-0.6,0.1h-0.5l0,0c-1.2-0.4-2-1.5-2-2.8
			c0-0.5,0.1-0.9,0.2-1.3c-0.1-0.3-0.2-0.7-0.2-1c0-0.6,0.2-1.2,0.6-1.8c-0.8-0.7-1.3-1.7-1.3-2.8c0-2,1.6-3.6,3.6-3.6
			c0.6,0,1.3,0.2,1.9,0.6c0.7-0.6,1.5-0.9,2.4-0.9c0.7,0,1.4,0.2,2,0.6c0-0.8,0.2-1.5,0.4-2.1c-0.5-0.9-0.7-2-0.7-3.1
			c0-3.8,3-6.8,6.8-6.8c0.6,0,1.1,0.1,1.8,0.3c0.8-1.2,2.2-1.9,3.6-1.9c0.5,0,1.1,0.1,1.6,0.3c1.4-1.2,3.1-1.8,5-1.8s3.6,0.6,5,1.8
			c1-0.4,2-0.6,3-0.6c1.8,0,3.6,0.7,4.9,1.8c0.5-0.2,1.1-0.3,1.6-0.3c1.4,0,2.7,0.7,3.6,1.8c0.6-0.2,1.2-0.3,1.8-0.3
			c3.7,0,6.8,3.1,6.8,6.8c0,1.1-0.2,2.2-0.7,3.1c0.3,0.7,0.4,1.6,0.4,2.5c0,3.7-3,6.8-6.7,6.8c-1.9,0-3.7-0.8-4.9-2.2
			c-1.4,1-3,1.5-4.7,1.5c-2.7,0-5-1.2-6.5-3.3c-1.5,1.4-3.5,2.2-5.5,2.2c-1.7,0-3.3-0.5-4.7-1.5c-0.7,0.8-1.7,1.4-2.7,1.8
			c0.1,0.3,0.2,0.6,0.2,0.9c0,1.3-0.8,2.5-2,2.8h0h0c0,0-0.1,0-0.1,0c-0.1,0-0.2,0.1-0.3,0.1c-0.2,0-0.4,0-0.7-0.1l-0.1,0.1h-0.2
			c0,0,0,0-0.1,0c-0.2,0.3-0.5,0.4-0.8,0.6l0,0h-0.3c-0.2,0-0.4-0.1-0.6-0.1l0,0l-0.1,0.1h-0.1c0,0-0.1,0-0.1,0
			c-0.3,0.3-0.8,0.4-1.1,0.6l0,0h0c0,0-0.1,0-0.1,0c-0.1,0-0.2,0.1-0.4,0.1c-0.2,0-0.4,0-0.5-0.1C34.1,117.9,32.8,118.8,31.4,118.8z
			 M31,118.2h0.4c1.3,0,2.3-0.9,2.6-2.1l0.1-0.4l0.4,0.1c0.2,0.1,0.5,0.1,0.7,0.1c0.1,0,0.2,0,0.2,0c0,0,0.1,0,0.2,0
			c0.4-0.2,0.7-0.3,0.9-0.5l0.1-0.1h0.2c0.1,0,0.1,0,0.2,0l0,0L37,115l0.2,0.1c0.1,0.1,0.3,0.1,0.5,0.1h0.1c0.3-0.1,0.5-0.3,0.6-0.5
			l0.1-0.2h0.2c0,0,0.1,0,0.1,0l0.1-0.1l0.2,0.1c0.2,0.1,0.5,0.1,0.7,0.1c0,0,0.1,0,0.1,0c0.1,0,0.2,0,0.2-0.1
			c0.9-0.2,1.5-1.2,1.5-2.1c0-0.4-0.1-0.7-0.2-1l-0.2-0.3l0.4-0.1c1.1-0.3,2.2-1,2.9-1.9l0.2-0.2L45,109c1.3,1,3,1.5,4.5,1.5
			c2,0,3.9-0.8,5.3-2.2l0.3-0.3l0.2,0.3c1.4,2.1,3.6,3.3,6.2,3.3c1.7,0,3.2-0.6,4.5-1.6l0.3-0.2l0.2,0.3c1.2,1.4,2.8,2.2,4.6,2.2
			c3.3,0,6-2.7,6-6.1c0-0.9-0.2-1.8-0.4-2.4l-0.1-0.2l0.1-0.2c0.4-0.8,0.7-1.9,0.7-2.9c0-3.4-2.7-6.1-6.1-6.1
			c-0.6,0-1.2,0.1-1.8,0.3L69.4,95l-0.2-0.2c-0.7-1.1-1.9-1.8-3.2-1.8c-0.5,0-1,0.1-1.5,0.3l-0.2,0.1l-0.2-0.2
			c-1.3-1.2-2.9-1.8-4.7-1.8c-1,0-2,0.2-2.9,0.7l-0.2,0.1l-0.2-0.2c-1.3-1.2-2.9-1.8-4.7-1.8c-1.7,0-3.4,0.6-4.7,1.8l-0.2,0.2
			l-0.2-0.1c-0.5-0.2-1-0.3-1.5-0.3c-1.3,0-2.5,0.7-3.2,1.8l-0.2,0.2l-0.3-0.1c-0.7-0.2-1.2-0.3-1.8-0.3c-3.3,0-6,2.8-6,6.1
			c0,1,0.2,2.1,0.7,2.9l0.1,0.2l-0.1,0.2c-0.3,0.7-0.5,1.5-0.5,2.4c0,0.1,0,0.2,0,0.3l0,0.9l-0.7-0.7c-0.5-0.6-1.3-0.9-2.1-0.9
			c-0.7,0-1.5,0.3-2.1,0.9l-0.2,0.2l-0.2-0.2c-0.5-0.4-1.1-0.6-1.7-0.6c-1.6,0-2.9,1.3-2.9,2.9c0,1,0.5,1.9,1.3,2.5l0.4,0.2
			l-0.3,0.3c-0.3,0.3-0.6,0.9-0.6,1.6c0,0.3,0,0.6,0.2,0.9l0.1,0.2l-0.1,0.2c-0.1,0.2-0.2,0.6-0.2,1.1c0,0.9,0.6,1.8,1.5,2.1h0.4
			c0.2,0,0.5-0.1,0.6-0.1l0.2-0.1l0.1,0.1l0.2-0.2L28,117c0.1,0.2,0.3,0.4,0.6,0.5h0.2c0.1,0,0.4,0,0.5-0.1l0.5-0.3v0.4h0.1l0.1,0.1
			C30.2,117.8,30.5,118,31,118.2z"/>
	</g>
	<polygon fill="#E6E6E6" points="43.5,44.9 64.6,44.9 64.6,51.1 43.5,51.1 	"/>
	<polygon fill="#CED2D9" points="64.6,48.9 64.6,51.1 43.5,51.1 43.5,48.9 	"/>
	<path fill="#333846" d="M88.7,115.5l-5.5-20.4c-0.1-0.3-0.3-0.5-0.6-0.5h-8.2V22c0-0.1,0-0.2-0.1-0.4l-1.8-3.1
		c-0.1-0.2-0.3-0.4-0.5-0.4h-7.4c-0.3,0-0.6,0.3-0.6,0.6v25.4H43.5c-0.3,0-0.6,0.3-0.6,0.6v6.2c0,0.3,0.3,0.6,0.6,0.6H64v40.5
		c-1.2-0.8-2.8-1.3-4.3-1.3c-1,0-2,0.2-3,0.6c-1.5-1.2-3.2-1.8-5-1.8c-1.8,0-3.6,0.6-5,1.8c-0.5-0.2-1-0.3-1.5-0.3
		c-1.5,0-2.8,0.7-3.7,1.8c-0.5-0.1-1.2-0.2-1.7-0.2c-1.7,0-3.4,0.6-4.6,1.7h-5c-0.2,0-0.4,0.1-0.5,0.3l-12.6,20.5
		c-0.1,0.2-0.1,0.2-0.1,0.3v2.6c0,0.3,0.3,0.6,0.5,0.6h11.9c0.1,0,0.1,0,0.1,0c0.4,0.3,0.7,0.4,1.1,0.6c0,0,0,0,0.1,0
		c0.1,0.1,0.4,0.1,0.5,0.1c0.7,0,1.4-0.2,1.9-0.6h54.8c0.3,0,0.6-0.3,0.6-0.6v-2.5v-0.1C88.8,115.7,88.7,115.6,88.7,115.5z
		 M88.2,115.9v2.5h-55c-0.5,0.4-1.1,0.6-1.8,0.6c-0.1,0-0.4,0-0.5,0c-0.4-0.1-0.8-0.3-1-0.6h-0.3h-12v-2.6l12.6-20.5h5.2
		c1.2-1.1,2.7-1.8,4.4-1.8c0.7,0,1.3,0.2,1.9,0.3c0.7-1.2,2-1.9,3.5-1.9c0.5,0,1.2,0.2,1.7,0.3c1.3-1.2,3-1.8,4.9-1.8
		s3.6,0.7,4.9,1.8c0.9-0.4,1.9-0.7,3-0.7c1.8,0,3.6,0.7,4.9,1.8h0.1v-1.1v-7.2V83v-4.1v-2.1v-7.1v-2.1v-3.4v-2.1V55v-2v-1.9H43.5
		v-3.6v-2.6h21.1v-5.2v-2.1v-3.3v-2.1V25v-2.1v-4h1.8H72l1.8,3.2v73.1c0.2,0,0.3,0.1,0.4,0.1h8.4L88.2,115.9L88.2,115.9L88.2,115.9z
		"/>
	<path fill="#333846" d="M42.3,56.2c0.3,0,0.5,0.2,0.5,0.4c0,0.3-0.2,0.5-0.5,0.5h-0.8c-0.2,0-0.4-0.2-0.4-0.5
		c0-0.2,0.2-0.4,0.4-0.4H42.3z M23.7,76.9c-0.2,0-0.4-0.2-0.4-0.4c0-0.2,0.2-0.4,0.4-0.4h0.9c0.2,0,0.4,0.2,0.4,0.4
		c0,0.3-0.2,0.4-0.4,0.4H23.7z M27.2,76.9c-0.2,0-0.4-0.2-0.4-0.4c0-0.2,0.2-0.4,0.4-0.4H28c0.3,0,0.5,0.2,0.5,0.4
		c0,0.3-0.2,0.4-0.5,0.4H27.2z M30.6,76.9c-0.3,0-0.5-0.2-0.5-0.4c0-0.2,0.2-0.4,0.5-0.4h0.8c0.2,0,0.4,0.2,0.4,0.4
		c0,0.3-0.2,0.4-0.4,0.4H30.6z M32,74.1c0,0.3-0.2,0.4-0.5,0.4c-0.2,0-0.4-0.1-0.4-0.4v-0.8c0-0.3,0.2-0.4,0.4-0.4
		c0.3,0,0.5,0.1,0.5,0.4V74.1z M32,70.7c0,0.2-0.2,0.4-0.5,0.4c-0.2,0-0.4-0.2-0.4-0.4v-0.9c0-0.2,0.2-0.4,0.4-0.4
		c0.3,0,0.5,0.2,0.5,0.4V70.7z M32,67.3c0,0.2-0.2,0.4-0.5,0.4c-0.2,0-0.4-0.2-0.4-0.4v-0.9c0-0.2,0.2-0.4,0.4-0.4
		c0.3,0,0.5,0.2,0.5,0.4V67.3z M32,63.8c0,0.3-0.2,0.4-0.5,0.4c-0.2,0-0.4-0.2-0.4-0.4V63c0-0.3,0.2-0.4,0.4-0.4
		c0.3,0,0.5,0.2,0.5,0.4V63.8z M32,60.4c0,0.3-0.2,0.5-0.5,0.5c-0.2,0-0.4-0.2-0.4-0.5v-0.8c0-0.2,0.2-0.4,0.4-0.4
		c0.3,0,0.5,0.2,0.5,0.4V60.4z M32,57.1c-0.1,0.2-0.2,0.3-0.5,0.3c-0.2,0-0.4-0.2-0.4-0.4v-0.4c0-0.2,0.2-0.4,0.4-0.4H32
		c0.3,0,0.5,0.2,0.5,0.4C32.5,56.9,32.3,57.1,32,57.1L32,57.1z M34.7,57.1c-0.3,0-0.5-0.2-0.5-0.5c0-0.2,0.2-0.4,0.5-0.4h0.8
		c0.2,0,0.4,0.2,0.4,0.4c0,0.3-0.2,0.5-0.4,0.5H34.7z M38,57.1c-0.2,0-0.4-0.2-0.4-0.5c0-0.2,0.2-0.4,0.4-0.4H39
		c0.2,0,0.4,0.2,0.4,0.4c0,0.3-0.2,0.5-0.4,0.5H38z"/>
	<path fill="#E6B800" d="M119.1,46.8H98.8c-1.7,0-3.1,1.4-3.1,3.1v11.8c0,1.7,1.4,3.1,3.1,3.1h15.6l4.6,5.8l0.1-5.8h0.1
		c1.7,0,3.1-1.5,3.1-3.1V49.8C122.2,48.1,120.7,46.8,119.1,46.8z"/>
	<g>
		<path fill="#FFE344" d="M89.9,40.1h26.4c2.2,0,4,1.8,4,4v15.4c0,2.2-1.8,4-4,4H96.1L90.2,71l-0.1-7.6h-0.2c-2.2,0-4-1.8-4-4V44.1
			C85.9,41.9,87.8,40.1,89.9,40.1z"/>
		<path fill="#333846" d="M116.4,40.1c2.2,0,4,1.8,4,4v15.4c0,2.2-1.8,4-4,4H96.1L90.2,71l-0.1-7.6h-0.2c-2.2,0-4-1.8-4-4V44.1
			c0-2.2,1.8-4,4-4L116.4,40.1 M116.4,39.6H89.9c-1.2,0-2.3,0.5-3.2,1.3c-0.8,0.8-1.3,2-1.3,3.2v15.4c0,2.4,1.8,4.3,4.2,4.5l0.1,7.1
			l0,1.4l0.9-1.1l5.8-7.4h20c2.5,0,4.5-2,4.5-4.5V44.1C120.9,41.6,118.8,39.6,116.4,39.6L116.4,39.6z"/>
	</g>
	<path fill="#333846" d="M102.1,67.9c0-0.3-0.3-0.6-0.6-0.6c-0.3,0-0.6,0.3-0.6,0.6v1.2c0,0.3,0.3,0.6,0.6,0.6
		c0.3,0,0.6-0.3,0.6-0.6V67.9z M77.6,82.1c-0.3,0-0.6,0.3-0.6,0.6c0,0.3,0.2,0.6,0.6,0.6h1.2c0.3,0,0.6-0.3,0.6-0.6
		c0-0.3-0.3-0.6-0.6-0.6H77.6z M82.2,82.1c-0.3,0-0.6,0.3-0.6,0.6c0,0.3,0.2,0.6,0.6,0.6h1.2c0.3,0,0.6-0.3,0.6-0.6
		c0-0.3-0.3-0.6-0.6-0.6H82.2z M86.9,82.1c-0.3,0-0.6,0.3-0.6,0.6c0,0.3,0.3,0.6,0.6,0.6h1.2c0.3,0,0.6-0.3,0.6-0.6
		c0-0.3-0.2-0.6-0.6-0.6H86.9z M91.6,82.1c-0.3,0-0.6,0.3-0.6,0.6c0,0.3,0.3,0.6,0.6,0.6h1.2c0.3,0,0.6-0.3,0.6-0.6
		c0-0.3-0.2-0.6-0.6-0.6H91.6z M96.3,82.1c-0.3,0-0.6,0.3-0.6,0.6c0,0.3,0.3,0.6,0.6,0.6h1.2c0.3,0,0.6-0.3,0.6-0.6
		c0-0.3-0.2-0.6-0.6-0.6H96.3z M100.9,82.1c-0.3,0.1-0.6,0.3-0.6,0.6c0,0.3,0.3,0.6,0.6,0.6h0.5c0.3,0,0.6-0.3,0.6-0.6V82
		c0-0.3-0.3-0.6-0.6-0.6C101.2,81.4,100.9,81.6,100.9,82.1L100.9,82.1L100.9,82.1z M100.9,78.5c0,0.3,0.3,0.6,0.6,0.6
		c0.3,0,0.6-0.3,0.6-0.6v-1.2c0-0.3-0.3-0.6-0.6-0.6c-0.3,0-0.6,0.2-0.6,0.6V78.5z M100.9,73.8c0,0.3,0.3,0.6,0.6,0.6
		c0.3,0,0.6-0.3,0.6-0.6v-1.2c0-0.3-0.3-0.6-0.6-0.6c-0.3,0-0.6,0.2-0.6,0.6V73.8z"/>
	<path fill="#333846" d="M121,46.8v-2.7c0-2.5-2.1-4.6-4.6-4.6H89.9c-2.6,0-4.6,2.1-4.6,4.6v15.4c0,2.4,1.8,4.3,4.2,4.5l0.1,7
		c0,0.2,0.1,0.5,0.4,0.6c0.2,0.1,0.5,0,0.7-0.2l5.5-7.1c0.7,0.7,1.6,1,2.6,1h15.3l4.3,5.6c0.2,0.2,0.4,0.3,0.7,0.2
		c0.3-0.1,0.4-0.3,0.4-0.6v-5.2c1.8-0.2,3.2-1.8,3.2-3.7V49.8C122.7,48.5,122.1,47.4,121,46.8z M122.2,61.6c0,1.7-1.4,3.1-3.1,3.1
		H119l-0.1,5.8l-4.6-5.8H98.8c-1,0-2-0.6-2.6-1.3h-0.1L90.2,71l-0.1-7.6H90c-2.2,0-4-1.8-4-4V44.1c0-2.2,1.8-4,4-4h26.4
		c2.2,0,4,1.8,4,4v3c1,0.5,1.8,1.5,1.8,2.8V61.6L122.2,61.6z"/>
	<path fill="#F1CF5F" d="M15.6,56.2c5.4,0,9.8,5.2,9.8,9.8c0,4.6-2.1,7.2-5.3,8.9l0,0h-8.5c-3.4-1.5-5.7-4.9-5.7-8.8
		C5.8,60.6,10.2,56.2,15.6,56.2z M20.1,74.8L20.1,74.8L20.1,74.8z M11.6,79.7L11.6,79.7V75c0-0.1,0-0.1,0-0.1l0,0c0,0.1,0,0.1,0,0.1
		V79.7z"/>
	<path fill="#E6E6E6" d="M20.1,74.8c0,0.1,0,0,0,0.1v5.4c0,1.2-0.8,2.1-1.7,2.1h-5c-1,0-1.7-0.9-1.8-2.1V75c0-0.1,0-0.1,0-0.1l0,0
		H20.1z"/>
	<path fill="#CED2D9" d="M11.6,75.8l8.7,0c0.3,0,0.5,0.2,0.5,0.6l0,0c0,0.3-0.2,0.6-0.5,0.6l-8.7,0c-0.3,0-0.6-0.2-0.6-0.6l0,0
		C11,76.1,11.2,75.8,11.6,75.8z"/>
	<path fill="#CED2D9" d="M11.6,77.9l8.7,0c0.3,0,0.5,0.2,0.5,0.6l0,0c0,0.3-0.2,0.6-0.5,0.6l-8.7,0c-0.3,0-0.6-0.2-0.6-0.6l0,0
		C11,78.2,11.2,77.9,11.6,77.9z"/>
	<path fill="#CED2D9" d="M11.6,80l8.7,0c0.3,0,0.5,0.2,0.5,0.6l0,0c0,0.3-0.2,0.6-0.5,0.6l-8.7,0c-0.3,0-0.6-0.2-0.6-0.6l0,0
		C11,80.2,11.2,80,11.6,80z"/>
	<polygon fill="#FFF212" points="13.2,65.3 18.4,65.3 18.9,65.3 18.9,65.7 18.9,74.8 18,74.8 18,66 13.6,66 13.6,74.8 12.9,74.8 
		12.9,65.7 12.9,65.3 	"/>
	<path fill="#333846" d="M26,65.9c0-2.6-1.3-5.2-3-7c-1.9-2.1-4.6-3.4-7.4-3.4C9.9,55.6,5.2,60.2,5.3,66c0,3.9,2.2,7.4,5.7,9.2v0.2
		c-0.3,0.1-0.6,0.6-0.6,1c0,0.4,0.3,0.8,0.6,1v0.1c-0.4,0.2-0.6,0.6-0.6,1c0,0.5,0.3,0.8,0.6,1c-0.4,0.2-0.6,0.6-0.6,1
		c0,0.6,0.4,1,0.9,1.1c0.4,0.8,1.2,1.4,2.1,1.4h5c0.9,0,1.6-0.6,2.1-1.4c0.5-0.1,1-0.6,1-1.2c0-0.4-0.2-0.8-0.5-1
		c0.4-0.2,0.5-0.6,0.5-1c0-0.5-0.3-0.9-0.7-1v-0.1c0.4-0.2,0.7-0.6,0.7-1s-0.3-0.9-0.7-1.1v-0.1C24.3,73.2,26,70.2,26,65.9z
		 M20.2,75.8c0.4,0,0.5,0.2,0.5,0.6c0,0.3-0.2,0.6-0.5,0.6h-0.1v1h0.1c0.4,0,0.5,0.3,0.5,0.6c0.1,0.3-0.2,0.6-0.5,0.6h-0.1v0.9h0.1
		c0.4,0,0.6,0.3,0.6,0.6c0,0.3-0.3,0.6-0.5,0.6H20c-0.3,0.8-0.9,1.3-1.6,1.3h-5.1c-0.8,0-1.4-0.6-1.6-1.3h-0.1
		c-0.3,0-0.6-0.3-0.6-0.6c0-0.3,0.3-0.6,0.6-0.6v-0.4V79c-0.3,0-0.6-0.2-0.6-0.6c0-0.3,0.3-0.6,0.6-0.6v-1c-0.3,0-0.6-0.3-0.6-0.6
		s0.3-0.6,0.6-0.6V75c0-0.1,0-0.1,0-0.1c-3.4-1.5-5.7-4.9-5.7-8.8c0-5.5,4.4-9.8,9.8-9.8s9.8,5.2,9.8,9.8c0,4.6-2.1,7.2-5.3,8.9
		c0,0.1,0,0.1,0,0.1v0.8L20.2,75.8L20.2,75.8z"/>
</g>
</svg>
