<?xml version="1.0" encoding="utf-8"?>
<!-- Generator: Adobe Illustrator 17.1.0, SVG Export Plug-In . SVG Version: 6.00 Build 0)  -->
<!DOCTYPE svg PUBLIC "-//W3C//DTD SVG 1.1//EN" "http://www.w3.org/Graphics/SVG/1.1/DTD/svg11.dtd">
<svg version="1.1" id="Precison_1_" xmlns="http://www.w3.org/2000/svg" xmlns:xlink="http://www.w3.org/1999/xlink" x="0px"
	 y="0px" viewBox="0 0 128 128" enable-background="new 0 0 128 128" xml:space="preserve">
<path id="Background" fill="#F3F3F3" d="M63.8,0c35.3,0,64.1,28.5,64.1,64.1s-28.6,63.8-64.1,63.8S0,99.4,0,64.1S28.5,0,63.8,0z"/>
<g id="help-support-headset-bubble">
	<g>
		<g id="_x33_6">
			<g>
				<path fill="#FFE344" d="M108.3,11.4H95.9h-4.6H80.4c-2.6,0-4.8,2.1-4.8,4.8v17c0,2.6,2.1,4.8,4.8,4.8h1.8v9.5l8-9.5h1.1h4.6
					h12.4c2.6,0,4.8-2.1,4.8-4.8v-17C113,13.5,110.9,11.4,108.3,11.4z"/>
				<path fill="#333846" d="M81.7,48.7V38.3h-1.3c-2.9,0-5.2-2.4-5.2-5.2V16.1c0-2.9,2.4-5.2,5.2-5.2h27.9c1.4,0,2.7,0.6,3.7,1.6
					c1,1,1.5,2.3,1.5,3.7v17c0,2.9-2.4,5.2-5.2,5.2H90.4L81.7,48.7z M80.4,11.9c-2.3,0-4.2,1.9-4.2,4.2V33c0,2.3,1.9,4.2,4.2,4.2
					h2.3V46l7.3-8.7h18.3c2.3,0,4.2-1.9,4.2-4.2v-17c0-1.1-0.4-2.2-1.2-3c-0.8-0.8-1.9-1.3-3-1.3H80.4z"/>
			</g>
			<g>
				<path fill="#CED2D9" d="M93.7,41.6c5.2,6.5,8.2,14.6,8.2,23.5c0,10.8-4.6,20.5-11.8,27.4c-0.2,0.2-0.4,0.4-0.7,0.7
					C82.7,99.3,73.8,103,64,103c-7.7,0-14.9-2.3-20.8-6.2c-1.6-1.1-3.2-2.2-4.6-3.6c-7.6-6.9-12.5-17-12.5-28.1
					c0-20.9,17-37.9,37.9-37.9c2.7,0,5.3,0.3,7.8,0.8v-4.2C69.3,23.3,66.7,23,64,23c-23.2,0-42,18.9-42,42c0,13.8,6.6,26,16.9,33.7
					c1.4,1,2.8,1.9,4.3,2.8c1.3,0.8,2.7,1.5,4.2,2.1c1.2,0.5,2.3,0.9,3.5,1.3c4.1,1.3,8.5,2.1,13.1,2.1s9-0.8,13.1-2.1
					c1.2-0.4,2.4-0.8,3.5-1.3c3-1.3,5.8-2.9,8.4-4.8c0.4-0.3,0.8-0.7,1.2-1c9.6-7.7,15.8-19.5,15.8-32.8c0-8.7-2.7-16.8-7.2-23.5
					L93.7,41.6L93.7,41.6z"/>
				<path fill="#333846" d="M64,107.6c-4.5,0-9-0.7-13.3-2.1c-1.2-0.4-2.3-0.8-3.6-1.3c-1.4-0.6-2.8-1.3-4.2-2.1
					c-1.5-0.9-3-1.8-4.4-2.8c-10.7-8-17.1-20.8-17.1-34.1c0-23.5,19.1-42.5,42.6-42.5c2.6,0,5.2,0.2,7.9,0.8l0.4,0.1v5.2l-0.6-0.1
					c-2.5-0.5-5.1-0.8-7.7-0.8c-20.6,0-37.4,16.8-37.4,37.4c0,10.5,4.5,20.6,12.3,27.7c1.4,1.3,2.9,2.4,4.5,3.5
					c6.1,4,13.2,6.2,20.5,6.2c9.3,0,18.2-3.4,25.1-9.7c0.1-0.1,0.2-0.2,0.3-0.3c0.1-0.1,0.2-0.2,0.3-0.3
					c7.5-7.2,11.7-16.8,11.7-27.1c0-8.5-2.8-16.5-8.1-23.2l-0.6-0.8h6.5l0.1,0.2c4.8,7,7.3,15.3,7.3,23.8c0,12.9-5.8,25-15.9,33.1
					c-0.4,0.3-0.8,0.7-1.3,1c-2.7,2-5.5,3.6-8.5,4.9c-1.3,0.5-2.4,1-3.6,1.3C73,106.9,68.5,107.6,64,107.6z M64,23.5
					c-22.9,0-41.6,18.6-41.6,41.5c0,13.2,6.1,25.4,16.7,33.3c1.3,1,2.7,1.9,4.2,2.8c1.4,0.8,2.7,1.5,4.1,2.1c1.2,0.5,2.4,1,3.5,1.3
					c8.4,2.8,17.5,2.8,25.9,0c1.1-0.4,2.2-0.8,3.5-1.3c2.9-1.3,5.7-2.9,8.3-4.8c0.4-0.3,0.8-0.6,1.2-1c9.9-7.9,15.6-19.7,15.6-32.4
					c0-8.2-2.4-16.2-7-23h-3.9c5,6.7,7.7,14.6,7.7,23c0,10.6-4.2,20.5-12,27.8c-0.1,0.1-0.2,0.2-0.3,0.3c-0.1,0.1-0.2,0.2-0.3,0.3
					c-7.1,6.4-16.2,9.9-25.8,9.9c-7.5,0-14.8-2.2-21.1-6.3c-1.7-1.1-3.2-2.3-4.6-3.6c-8-7.3-12.6-17.6-12.6-28.5
					c0-21.2,17.2-38.4,38.4-38.4c2.5,0,5,0.2,7.3,0.7v-3.2C68.8,23.8,66.4,23.5,64,23.5z"/>
			</g>
			<g>
				<path fill="#FFE344" d="M62.8,88.6C62.8,88.6,62.7,88.6,62.8,88.6l-4.7-0.4c-0.7-0.1-1.2-0.7-1.2-1.3v-0.2H55
					c-4.8,0-9-3.2-10.4-7.8h-3.9c-0.8,0-1.5-0.7-1.5-1.4V63.5c0-0.8,0.7-1.5,1.5-1.5h3.4v-2.8c0-8.7,7.1-15.9,15.8-15.9h6.8
					c8.8,0,15.8,7.1,15.8,15.8v2.8h3.5c0.8,0,1.4,0.7,1.4,1.5v13.9c0,0.8-0.7,1.4-1.4,1.4h-6.8c-0.8,0-1.4-0.7-1.4-1.4V63.5
					c0-0.8,0.7-1.5,1.4-1.5h1.1v-2.8c0-7.5-6.1-13.5-13.5-13.5h-6.8c-7.5,0-13.5,6.1-13.5,13.5v2.8h1.2c0.8,0,1.5,0.7,1.5,1.5v13.9
					c0,0.8-0.7,1.4-1.5,1.4h-1.2c1.3,3.6,4.7,6,8.6,6H57v-0.3c0-0.7,0.5-1.2,1.2-1.3l4.6-0.4c0,0,0,0,0.1,0c0.2,0,1.7,0.1,1.7,2.9
					C64.4,88.5,63.1,88.6,62.8,88.6z"/>
				<path fill="#333846" d="M66.7,43.7c8.6,0,15.6,7,15.6,15.6v3H86c0.7,0,1.2,0.5,1.2,1.2v13.9c0,0.7-0.6,1.2-1.2,1.2h-6.8
					c-0.7,0-1.2-0.6-1.2-1.2V63.5c0-0.7,0.6-1.2,1.2-1.2h1.3v-3c0-7.6-6.2-13.8-13.8-13.8h-6.8c-7.6,0-13.8,6.2-13.8,13.8v3h1.4
					c0.7,0,1.2,0.5,1.2,1.2v13.9c0,0.7-0.5,1.2-1.2,1.2h-1.5c1.2,3.8,4.8,6.5,9,6.5h2.2v-0.5c0-0.5,0.4-1,1-1.1l4.6-0.4
					c0,0,0,0,0.1,0c0.5,0,1.4,0.6,1.4,2.7c0,2.1-0.8,2.6-1.4,2.6c0,0,0,0-0.1,0L58.2,88c-0.5-0.1-1-0.5-1-1.1v-0.5H55
					c-4.9,0-9-3.3-10.2-7.8h-4.1c-0.7,0-1.2-0.6-1.2-1.2V63.6c0-0.7,0.5-1.2,1.2-1.2h3.6v-3c0-8.6,7-15.6,15.6-15.6L66.7,43.7
					 M66.7,43.2h-6.8c-8.9,0-16.1,7.2-16.1,16.1v2.5h-3.1c-1,0-1.7,0.8-1.7,1.7v13.9c0,0.9,0.8,1.7,1.7,1.7h3.7
					c1.5,4.6,5.8,7.8,10.6,7.8h1.7l0,0c0,0.8,0.7,1.5,1.4,1.6l4.6,0.4c0,0,0.1,0,0.1,0c0.3,0,1.9-0.2,1.9-3.1c0-3.1-1.7-3.2-1.9-3.2
					c0,0-0.1,0-0.1,0l-4.6,0.4c-0.8,0.1-1.4,0.8-1.4,1.6v0H55c-3.7,0-6.9-2.2-8.2-5.5h0.8c1,0,1.7-0.8,1.7-1.7V63.5
					c0-1-0.8-1.7-1.7-1.7h-0.9v-2.5c0-3.5,1.4-6.9,3.9-9.4s5.8-3.9,9.4-3.9h6.8c3.6,0,6.9,1.4,9.4,3.9c2.5,2.5,3.9,5.8,3.9,9.4v2.5
					h-0.8c-0.9,0-1.7,0.8-1.7,1.7v13.9c0,0.9,0.8,1.7,1.7,1.7H86c0.9,0,1.7-0.8,1.7-1.7V63.5c0-1-0.8-1.7-1.7-1.7h-3.2v-2.5
					C82.8,50.5,75.6,43.2,66.7,43.2L66.7,43.2z"/>
			</g>
			<path fill="#484B4D" d="M72.7,65h-1.5c-0.5,0-0.9,0.4-0.9,0.8v3.6c0,0.5,0.4,0.9,0.9,0.9h1.5c0.5,0,0.9-0.4,0.9-0.9v-3.6
				C73.6,65.4,73.2,65,72.7,65z"/>
			<path fill="#484B4D" d="M53.5,65c-0.5,0-0.8,0.4-0.8,0.8v3.6c0,0.5,0.4,0.9,0.8,0.9H55c0.5,0,0.8-0.4,0.8-0.9v-3.6
				c0-0.5-0.4-0.8-0.8-0.8H53.5z"/>
			<g>
				<rect x="80.4" y="27.8" fill="#F4F8F8" width="28.3" height="2.6"/>
				<rect x="80.4" y="17.9" fill="#F4F8F8" width="28.3" height="2.6"/>
				<g>
					<rect x="80.4" y="22.9" fill="#F4F8F8" width="6.9" height="2.6"/>
					<rect x="91.9" y="22.8" fill="#F4F8F8" width="16.7" height="2.6"/>
				</g>
			</g>
		</g>
	</g>
</g>
<g id="Layer_1_1_">
</g>
</svg>
