<?xml version="1.0" encoding="utf-8"?>
<!-- Generator: Adobe Illustrator 17.1.0, SVG Export Plug-In . SVG Version: 6.00 Build 0)  -->
<!DOCTYPE svg PUBLIC "-//W3C//DTD SVG 1.1//EN" "http://www.w3.org/Graphics/SVG/1.1/DTD/svg11.dtd">
<svg version="1.1" id="Layer_1" xmlns="http://www.w3.org/2000/svg" xmlns:xlink="http://www.w3.org/1999/xlink" x="0px" y="0px"
	 viewBox="0 0 128 128" enable-background="new 0 0 128 128" xml:space="preserve">
<path id="Background" fill="#F3F3F3" d="M63.7,0c35.2,0,64,28.5,64,64s-28.5,63.7-64,63.7S0,99.2,0,64S28.5,0,63.7,0z"/>
<g>
	<path fill="#77B3D4" d="M36.8,100.9c-0.9,0-1.7-0.6-2.1-1.5l-6.4-16.7c-0.2-0.6-0.2-1.2,0.1-1.7c0.3-0.6,0.6-0.9,1.2-1.2l75-28.6
		c0.3-0.1,0.6-0.2,0.8-0.2c0.9,0,1.7,0.6,2.1,1.5l6.4,16.7c0.2,0.6,0.2,1.2-0.1,1.7c-0.3,0.6-0.6,0.9-1.2,1.2l-75,28.6
		C37.4,100.8,37.1,100.9,36.8,100.9z"/>
	<g>
		<path fill="#CED2D9" d="M105.5,53.4L105.5,53.4l6.4,16.7l-75,28.6L30.5,82L105.5,53.4 M105.5,48.9c-0.6,0-1.1,0.1-1.6,0.3
			l-75,28.6c-2.3,0.9-3.5,3.5-2.6,5.8l6.4,16.7c0.6,1.7,2.4,2.9,4.1,2.9c0.6,0,1.1-0.1,1.6-0.3l75-28.6c2.3-0.9,3.5-3.5,2.6-5.8
			l-6.4-16.7C109,50,107.3,48.9,105.5,48.9L105.5,48.9z"/>
		<path fill="#333846" d="M36.8,103.6c-2,0-3.9-1.3-4.6-3.1l-6.4-16.7c-0.9-2.6,0.3-5.4,2.9-6.4l75-28.6c0.6-0.2,1.2-0.4,1.7-0.4
			c2,0,3.9,1.3,4.6,3.1l6.4,16.7c0.9,2.6-0.3,5.4-2.9,6.4l-75,28.6C38,103.5,37.5,103.6,36.8,103.6z M105.5,49.4
			c-0.5,0-1,0.1-1.4,0.3l-75,28.6c-2,0.8-3.1,3.1-2.3,5.2l6.4,16.7c0.6,1.6,2.1,2.6,3.8,2.6c0.5,0,1-0.1,1.4-0.3l75-28.6
			c2-0.8,3.1-3.1,2.3-5.2l-6.4-16.7C108.7,50.4,107.2,49.4,105.5,49.4z"/>
	</g>
</g>
<g>
	<g>
		<path fill="#76C2AF" d="M39.8,102.2c-0.7,0-1.5-0.4-1.8-1L28,86.4c-0.4-0.5-0.5-1.1-0.4-1.7c0.1-0.6,0.5-1.1,0.9-1.4l66.8-44.5
			c0.4-0.3,0.8-0.4,1.2-0.4c0.7,0,1.5,0.4,1.8,1l9.9,14.8c0.4,0.5,0.5,1.1,0.4,1.7c-0.1,0.6-0.5,1.1-0.9,1.4L41,101.8
			C40.7,102.1,40.2,102.2,39.8,102.2z"/>
		<path fill="#333846" d="M39.8,102.6c-0.9,0-1.7-0.5-2.2-1.2l-9.9-14.8c-0.4-0.6-0.6-1.3-0.4-2c0.2-0.7,0.6-1.3,1.1-1.7l66.8-44.5
			c0.5-0.3,0.9-0.5,1.5-0.5c0.9,0,1.7,0.5,2.2,1.2l9.9,14.8c0.4,0.6,0.6,1.3,0.4,2c-0.2,0.7-0.6,1.3-1.1,1.7l-66.8,44.5
			C40.9,102.5,40.3,102.6,39.8,102.6z M96.7,38.8c-0.4,0-0.6,0.1-1,0.3L28.9,83.7c-0.4,0.3-0.6,0.6-0.7,1.1s0,0.9,0.3,1.3l9.9,14.8
			c0.6,0.8,1.7,1,2.5,0.5l66.8-44.5c0.4-0.3,0.6-0.6,0.7-1.1c0.1-0.5,0-0.9-0.3-1.3l-9.9-14.8C97.9,39.1,97.3,38.8,96.7,38.8z"/>
	</g>
	<g>
		<path fill="#E6E6E6" d="M96.7,40.6L96.7,40.6l9.9,14.8L39.8,100l-9.8-14.8L96.7,40.6 M96.7,36.1c-0.8,0-1.7,0.3-2.5,0.7L27.5,81.4
			c-2,1.4-2.6,4.1-1.2,6.2l9.9,14.8c0.8,1.3,2.3,2,3.7,2c0.8,0,1.7-0.3,2.5-0.7l66.8-44.5c2-1.4,2.6-4.1,1.2-6.2l-9.9-14.8
			C99.5,36.8,98.1,36.1,96.7,36.1L96.7,36.1z"/>
		<path fill="#333846" d="M39.8,104.9c-1.7,0-3.2-0.8-4.1-2.2L25.9,88c-0.6-1-1.1-2.3-0.9-3.5c0.2-1.5,0.9-2.8,2.1-3.5L94,36.5
			c1.4-0.9,3.1-1.1,4.7-0.4c0.9,0.4,1.7,1.1,2.2,1.9l9.8,14.7c0.7,1.1,1,2.4,0.7,3.7c-0.3,1.3-1,2.4-2.1,3.1l-66.8,44.5
			C41.7,104.6,40.8,104.9,39.8,104.9z M97.9,36.7c-1.2-0.4-2.4-0.2-3.4,0.5L27.6,81.8c-1.1,0.7-1.8,2-1.7,3.5c0,0.8,0.4,1.6,0.7,2.2
			l9.8,14.7c0.7,1.1,2,1.7,3.3,1.7c0.8,0,1.6-0.3,2.2-0.6l66.8-44.5c1.1-0.7,1.8-2,1.7-3.5c0-0.8-0.4-1.6-0.7-2.2l-9.8-14.5
			C99.5,37.7,98.8,37,97.9,36.7z"/>
	</g>
</g>
<g>
	<path fill="#E6B800" d="M42.7,102.8c-0.6,0-1.1-0.2-1.6-0.6L28.4,89.7c-0.5-0.5-0.6-1-0.6-1.6s0.2-1.2,0.6-1.6l56.2-57.3
		c0.5-0.5,1-0.6,1.6-0.6c0.6,0,1.1,0.2,1.6,0.6l12.7,12.4c0.5,0.5,0.6,1,0.6,1.6s-0.2,1.2-0.6,1.6l-56.1,57.3
		C43.8,102.6,43.3,102.8,42.7,102.8z"/>
	<g>
		<path fill="#FFFFFF" d="M86.2,30.8L86.2,30.8l12.7,12.5l-56.2,57.3L29.9,88.1L86.2,30.8L86.2,30.8 M86.2,26.3
			c-1.2,0-2.3,0.5-3.2,1.4L26.7,85c-1.7,1.7-1.7,4.6,0.1,6.4l12.7,12.5c0.8,0.8,2,1.3,3.1,1.3c1.2,0,2.3-0.5,3.2-1.4l56.2-57.3
			c1.7-1.7,1.7-4.6-0.1-6.4L89.3,27.5C88.4,26.7,87.3,26.3,86.2,26.3L86.2,26.3z"/>
		<path fill="#333846" d="M42.7,105.5c-1.3,0-2.5-0.5-3.4-1.4L26.5,91.6c-0.9-0.9-1.5-2.1-1.5-3.5c0-1.3,0.5-2.6,1.4-3.5l56.2-57.3
			c0.9-0.9,2.2-1.5,3.5-1.5c1.3,0,2.5,0.5,3.4,1.4l12.8,12.5c1.9,1.9,1.9,5.1,0.1,7L46.2,104C45.3,104.9,44,105.5,42.7,105.5z
			 M86.2,26.7c-1.1,0-2.1,0.5-2.9,1.2L27.1,85.3C26.3,86,25.9,87,26,88.1c0,1.1,0.5,2,1.2,2.9l12.7,12.5c0.7,0.7,1.7,1.1,2.8,1.1
			c1.1,0,2.1-0.5,2.9-1.2L101.7,46c1.6-1.6,1.6-4.1-0.1-5.6L88.9,27.9C88.2,27.2,87.2,26.7,86.2,26.7z"/>
	</g>
</g>
<g>
	<path fill="#F1CF5F" d="M46,102.7c-0.4,0-0.8-0.1-1.1-0.3l-15.4-9.2c-0.6-0.3-0.8-0.8-1-1.4s-0.1-1.2,0.3-1.7l41.2-68.9
		c0.4-0.6,1.1-1.1,1.9-1.1c0.4,0,0.8,0.1,1.1,0.3l15.3,9.2c1,0.6,1.4,2,0.7,3L48,101.6C47.5,102.4,46.9,102.7,46,102.7z"/>
	<g>
		<path fill="#FFFFFF" d="M72,22.5L72,22.5l15.3,9.2L46,100.5l-15.3-9.2L72,22.5L72,22.5 M72,18c-1.5,0-3,0.7-3.9,2.2L26.9,89
			c-1.3,2.1-0.6,4.9,1.6,6.1l15.3,9.2c0.7,0.5,1.5,0.6,2.3,0.6c1.5,0,3-0.7,3.9-2.2l41.2-68.8c1.3-2.1,0.6-4.9-1.6-6.1l-15.3-9.2
			C73.6,18.2,72.8,18,72,18L72,18z"/>
		<path fill="#333846" d="M46,105.4c-0.9,0-1.7-0.3-2.5-0.7l-15.3-9.2c-2.3-1.4-3.1-4.4-1.7-6.7l41.2-68.8c0.9-1.5,2.5-2.4,4.2-2.4
			c0.9,0,1.7,0.3,2.5,0.7l15.3,9.2c2.3,1.4,3.1,4.4,1.7,6.7L50.3,103C49.4,104.5,47.8,105.4,46,105.4z M72,18.4
			c-1.4,0-2.8,0.7-3.4,1.9L27.3,89.3c-1.1,1.9-0.6,4.3,1.4,5.5l15.3,9.2c0.6,0.4,1.3,0.6,2,0.6c1.4,0,2.8-0.7,3.4-1.9l41.2-68.8
			c1.1-1.9,0.6-4.3-1.4-5.5l-15.3-9.2C73.5,18.7,72.7,18.4,72,18.4z"/>
	</g>
</g>
<g>
	<path fill="#FFE344" d="M49.1,102c-0.3,0-0.5,0-0.7-0.1l-16.9-5.7c-0.6-0.2-1-0.6-1.3-1.1c-0.3-0.6-0.3-1.1-0.1-1.7l25.4-76.2
		c0.3-0.9,1.2-1.6,2.1-1.6c0.3,0,0.5,0,0.7,0.1l16.9,5.6c0.6,0.2,1,0.6,1.3,1.1s0.3,1.1,0.1,1.7l-25.4,76.3
		C50.8,101.4,50,102,49.1,102z"/>
	<g>
		<path fill="#FFFFFF" d="M57.5,18l16.9,5.6L49.1,99.8l-16.9-5.6L57.5,18 M57.5,13.5c-1.8,0-3.6,1.2-4.2,3L27.9,92.7
			c-0.7,2.3,0.5,4.9,2.9,5.6l16.9,5.6c0.5,0.2,0.9,0.2,1.4,0.2c1.8,0,3.6-1.2,4.2-3L78.7,25c0.7-2.3-0.5-4.9-2.9-5.6l-16.9-5.6
			C58.5,13.6,58,13.5,57.5,13.5L57.5,13.5z"/>
		<path fill="#333846" d="M49.1,104.7c-0.6,0-1-0.1-1.6-0.3l-16.9-5.6c-2.6-0.8-4-3.7-3.1-6.3l25.4-76.2c0.6-1.9,2.6-3.3,4.7-3.3
			c0.6,0,1,0.1,1.6,0.3L76,18.9c1.3,0.5,2.3,1.3,2.9,2.5s0.6,2.5,0.3,3.8l-25.5,76.2C53,103.3,51.2,104.7,49.1,104.7z M57.5,13.9
			c-1.7,0-3.2,1.1-3.8,2.8L28.4,92.9c-0.7,2.1,0.5,4.3,2.5,5.1l16.9,5.6c0.4,0.1,0.8,0.2,1.3,0.2c1.7,0,3.2-1.1,3.8-2.8l25.4-76.2
			c0.4-1,0.3-2.1-0.2-3c-0.5-0.9-1.3-1.7-2.3-2l-16.9-5.6C58.4,14,57.9,13.9,57.5,13.9z"/>
	</g>
</g>
<ellipse opacity="0.2" fill="#231F20" enable-background="new    " cx="43.4" cy="88.7" rx="4.1" ry="4.1"/>
<g>
	<ellipse fill="#FFFFFF" cx="44.2" cy="86.1" rx="4.1" ry="4.1"/>
	<path fill="#333846" d="M44.2,90.8c-0.5,0-1-0.1-1.5-0.3c-2.4-0.8-3.8-3.4-2.9-5.9c0.6-1.9,2.4-3.1,4.4-3.1c0.5,0,1,0.1,1.5,0.3
		c1.2,0.4,2.1,1.2,2.7,2.3c0.6,1.1,0.6,2.4,0.3,3.5C48,89.5,46.2,90.8,44.2,90.8z M44.2,82.4c-1.6,0-3,1-3.5,2.6
		c-0.6,1.9,0.4,4,2.4,4.7c0.4,0.1,0.7,0.2,1.2,0.2c1.6,0,3-1,3.5-2.6c0.3-0.9,0.3-1.9-0.2-2.9c-0.5-0.9-1.2-1.6-2.1-1.8
		C45,82.5,44.7,82.4,44.2,82.4z"/>
</g>
</svg>
