<?xml version="1.0" encoding="utf-8"?>
<!-- Generator: Adobe Illustrator 17.1.0, SVG Export Plug-In . SVG Version: 6.00 Build 0)  -->
<!DOCTYPE svg PUBLIC "-//W3C//DTD SVG 1.1//EN" "http://www.w3.org/Graphics/SVG/1.1/DTD/svg11.dtd">
<svg version="1.1" id="Layer_1" xmlns="http://www.w3.org/2000/svg" xmlns:xlink="http://www.w3.org/1999/xlink" x="0px" y="0px"
	 viewBox="0 0 128 128" enable-background="new 0 0 128 128" xml:space="preserve">
<path id="Background" fill="#F3F3F3" d="M63.7,0c35.2,0,64,28.5,64,64s-28.5,63.7-64,63.7S0,99.2,0,64S28.5,0,63.7,0z"/>
<g>
	<g>
		<g>
			<polygon fill="#FFE344" points="104.9,55.2 98,48.6 89.9,56.3 76.4,42.8 76.1,39 86.2,29 89.6,29.2 109.8,49.4 109.8,57.8 
				104.9,63 			"/>
			<path fill="#333846" d="M104.5,64.1v-8.7L98,49.1l-8.1,7.7L75.9,43l-0.4-4.1l10.4-10.4l3.9,0.4l0.1,0.1l20.3,20.3V58L104.5,64.1z
				 M98,48l7.4,7v6.8l4-4.2v-8l-20-19.9l-3.1-0.3l-9.8,9.8l0.3,3.3l13.1,13.1L98,48z"/>
		</g>
		<path fill="#333846" d="M86.5,29.2l3.2,0.3l19.6,20.4v7.2l-4.1,4.5l0.1-6.8l-6.7-6.3L98.1,48L90,55.8l-0.9-0.9L78.4,44.3l-2-2.1
			L76.1,39L86.5,29.2 M86.2,28.7L86.2,28.7L76.1,38.8L75.8,39v0.3l0.3,3.2v0.3l0.3,0.3l2,2L89,55.6l0.9,0.9v0.3l0.5-0.5l7.5-7.5
			l0.3,0.3l6.3,6.3V62v1.8l1.2-1.2L110,58h0.3v-0.3v-8.1v-0.3L110,49L89.9,29.2V29h-0.3l-3.2-0.3H86.2L86.2,28.7z"/>
	</g>
	<g>
		<polygon fill="#FFE344" points="66.6,33 66.8,30.7 77.8,20.1 80.1,19.7 83.8,23.5 83.6,25.5 72.6,36.4 70.3,36.7 		"/>
		<path fill="#333846" d="M79.8,20.1l3.2,3.5l-0.1,2.1l-10.1,9.9l-2.3,0.5L67.3,33l0.2-2L78,20.2L79.8,20.1 M80.1,19.1h-0.3l-2,0.3
			h-0.3l-0.4,0.3L66.8,30.4l-0.3,0.3V31l-0.3,2v0.3l0.3,0.3l3.4,3.4l0.3,0.3h0.3l2-0.5h0.3l0.3-0.3L83.8,26l0.2-0.4v-0.3v-1.7v-0.3
			L83.7,23L80.1,19.1L80.1,19.1L80.1,19.1z"/>
	</g>
	<g>
		<g>
			<polygon fill="#E6E6E6" points="30.3,99.3 30.5,94.7 79.3,46 87.6,54.4 38.9,103.1 34.2,103.3 			"/>
			<path d="M34.1,103.8l-4.3-4.3l0.3-5l49.2-49.2l9,9l-49.2,49.1L34.1,103.8z M30.7,99.1l3.8,3.8l4.2-0.3L87,54.4l-7.7-7.7L31,94.9
				L30.7,99.1z"/>
		</g>
		<path fill="#333846" d="M79.3,46.5l7.7,7.7l-48.2,48.2l-4.3,0.3l-3.8-3.8l0.3-4.3L79.3,46.5 M79.3,45.4l-0.5,0.5L30.5,94.4
			l-0.3,0.3V95L30,99.3v0.3l0.3,0.3l3.8,3.8l0.3,0.3h0.3l4.3-0.3h0.3l0.3-0.3l48.2-48.7l0.5-0.5l-0.5-0.5L80.1,46L79.3,45.4
			L79.3,45.4z"/>
	</g>
	<polygon fill="#CED2D9" points="34,102.4 34.6,103.1 38.9,102.4 87,54.4 84.4,51.7 	"/>
	<g>
		
			<rect x="72.6" y="30.4" transform="matrix(-0.7071 0.7071 -0.7071 -0.7071 158.9177 -0.9679)" fill="#E6B800" width="14.1" height="4.1"/>
		<path fill="#333846" d="M83.3,26.6l2.3,2.3l-9.5,9.5l-2.3-2.3L83.3,26.6 M83.3,25.5L82.8,26l-9.5,9.6l-0.5,0.5l0.5,0.5l2.3,2.3
			l0.5,0.5l0.5-0.5l9.5-9.5l0.5-0.5l-0.5-0.5l-2.3-2.3L83.3,25.5L83.3,25.5z"/>
	</g>
</g>
<g>
	<g>
		
			<rect x="45.5" y="42.1" transform="matrix(0.7071 0.7071 -0.7071 0.7071 55.2802 -18.0104)" fill="#CED2D9" width="7.7" height="31.2"/>
		<path fill="#333846" d="M41.2,72.2L35,66.1l22.6-22.7l6.1,6.1L41.2,72.2z M36.3,66l4.9,4.9l21.3-21.3l-4.9-4.9L36.3,66z"/>
	</g>
	<g>
		<circle fill="none" cx="89.3" cy="98.1" r="2"/>
		<g>
			<path fill="#F1CF5F" d="M94.2,93.8L68.5,68.1l1.2-11.3l-6.9-6.9L41.5,71.3l7.2,6.9L59.4,77c0,0,24,24,25.7,25.7s4.9,3.4,9.2-0.9
				C98.3,98.1,94.2,93.8,94.2,93.8z M87.9,99.6c-0.9-0.9-0.9-2,0-2.9s2-0.9,2.9,0s0.9,2,0,2.9S88.7,100.5,87.9,99.6z"/>
			<path fill="#333846" d="M89,105.1L89,105.1c-1.5,0-3-0.6-4.3-2c-1.6-1.6-23.5-23.5-25.5-25.5l-10.6,1.2l-7.7-7.4l22-22l7.4,7.4
				L69.1,68l25.5,25.5c0.1,0.1,2,2.2,1.9,4.8c-0.1,1.4-0.7,2.8-1.9,3.9C92.7,104.1,90.8,105.1,89,105.1z M59.5,76.6l0.2,0.2
				c0,0,24,24,25.7,25.7c2.5,2.5,5.5,2.3,8.6-0.9c1.1-1,1.6-2.1,1.6-3.3c0.1-2.3-1.6-4.1-1.7-4.1L68.1,68.3L69.3,57l-6.5-6.5
				L42.1,71.3l6.8,6.5L59.5,76.6z M89.3,100.6c-0.6,0-1.3-0.3-1.8-0.8c-1.1-1.1-1.1-2.5,0-3.5c1-1,2.5-1,3.5,0
				c1.1,1.1,1.1,2.5,0,3.5C90.6,100.4,90,100.6,89.3,100.6z M89.3,96.5c-0.4,0-0.8,0.2-1.1,0.5c-0.7,0.7-0.7,1.5,0,2.3
				c0.7,0.7,1.5,0.7,2.3,0c0.7-0.7,0.7-1.5,0-2.3C90.2,96.7,89.7,96.5,89.3,96.5z"/>
		</g>
		<g>
			<polygon fill="#E6E6E6" points="38.3,25.5 35.8,26.1 17.3,44.8 17.6,47.2 36,65.5 57.4,44.5 			"/>
			<path fill="#333846" d="M36,66.2l-18.9-19l-0.4-2.7l18.7-19l3-0.6L58,44.5L36,66.2z M18,46.9l18,18l20.7-20.4L38.2,26l-2.3,0.5
				L17.8,45L18,46.9z"/>
		</g>
		<path fill="#FFE344" d="M38.1,26.4l-2.3,0.5l-17.6,18l0.6,2.4l12,11.6c0,0-0.8-5.4,1.7-7.9s3.3-1.4,6.2-4.2c2.8-2.8,1.1-5,4-7.8
			s2.7-5.5,2.7-5.5L38.1,26.4z"/>
	</g>
	<polygon fill="#E6E6E6" points="39.8,69.3 36.8,66.2 58,45.4 60.9,48.1 	"/>
	<polygon fill="#E6B800" points="35.9,35.7 31.4,31.4 33.2,29.6 37.7,34 	"/>
	
		<rect x="44.1" y="45" transform="matrix(0.7071 0.7071 -0.7071 0.7071 46.939 -20.6632)" fill="#CED2D9" width="8.6" height="2.6"/>
	<polygon fill="#CED2D9" points="40.6,60.1 34.8,54.1 36.6,52.3 42.4,58.3 	"/>
	<polygon fill="#E6B800" points="25.5,46.1 21.1,41.8 22.9,39.9 27.3,44.3 	"/>
	<polygon fill="#E6B800" points="32.9,42.8 26.5,36.5 28.3,34.8 34.7,41.1 	"/>
	<polygon fill="#E6B800" points="45.2,68.8 50.1,73.9 59.6,73.4 90.2,103.9 88.4,103.6 86.7,103.1 59.9,76.2 49.3,77.1 42.9,70.7 	
		"/>
</g>
</svg>
