<?xml version="1.0" encoding="utf-8"?>
<!-- Generator: Adobe Illustrator 17.1.0, SVG Export Plug-In . SVG Version: 6.00 Build 0)  -->
<!DOCTYPE svg PUBLIC "-//W3C//DTD SVG 1.1//EN" "http://www.w3.org/Graphics/SVG/1.1/DTD/svg11.dtd">
<svg version="1.1" id="Precison_1_" xmlns="http://www.w3.org/2000/svg" xmlns:xlink="http://www.w3.org/1999/xlink" x="0px"
	 y="0px" viewBox="0 0 512 512" enable-background="new 0 0 512 512" xml:space="preserve">
<path id="Background" fill="#F3F3F3" d="M255.2,0c141,0,256.5,114.2,256.5,256.5S397.5,511.7,255.2,511.7S0,397.5,0,256.5
	S114.2,0,255.2,0z"/>
<path fill="#333846" d="M41.2,378.1h448.5c2.1,0,3.7,1.6,3.7,3.5V434c0,1.9-1.6,3.5-3.7,4.4H41.2c-2.1-0.9-3.7-2.5-3.7-4.4v-52.4
	C37.5,379.7,39.1,378.1,41.2,378.1z"/>
<polygon fill="#FFE344" points="41.2,382.5 489.8,382.5 489.8,434.8 41.2,434.8 "/>
<polygon fill="#373435" points="56.4,381.7 60.1,381.7 60.1,415 56.4,415 "/>
<polygon fill="#373435" points="78.3,381.7 82,381.7 82,404.6 78.3,404.6 "/>
<polygon fill="#373435" points="103.9,381.7 107.7,381.7 107.7,415 103.9,415 "/>
<polygon fill="#333846" points="125.1,381.7 128.8,381.7 128.8,404.6 125.1,404.6 "/>
<polygon fill="#373435" points="150.8,381.7 154.5,381.7 154.5,415 150.8,415 "/>
<polygon fill="#373435" points="171.9,381.7 175.7,381.7 175.7,404.6 171.9,404.6 "/>
<polygon fill="#373435" points="197.6,381.7 201.3,381.7 201.3,415 197.6,415 "/>
<polygon fill="#373435" points="218.7,381.7 222.5,381.7 222.5,404.6 218.7,404.6 "/>
<polygon fill="#373435" points="244.4,381.7 248.2,381.7 248.2,415 244.4,415 "/>
<polygon fill="#373435" points="265.5,381.7 269.3,381.7 269.3,404.6 265.5,404.6 "/>
<polygon fill="#373435" points="291.2,381.7 295,381.7 295,415 291.2,415 "/>
<polygon fill="#373435" points="312.4,381.7 316.1,381.7 316.1,404.6 312.4,404.6 "/>
<polygon fill="#373435" points="338,381.7 341.8,381.7 341.8,415 338,415 "/>
<polygon fill="#373435" points="359.2,381.7 363,381.7 363,404.6 359.2,404.6 "/>
<polygon fill="#373435" points="384.9,381.7 388.6,381.7 388.6,415 384.9,415 "/>
<polygon fill="#373435" points="406,381.7 409.8,381.7 409.8,404.6 406,404.6 "/>
<polygon fill="#373435" points="431.7,381.7 435.5,381.7 435.5,415 431.7,415 "/>
<polygon fill="#373435" points="452.8,381.7 456.6,381.7 456.6,404.6 452.8,404.6 "/>
<polygon fill="#373435" points="478.5,381.7 482.3,381.7 482.3,415 478.5,415 "/>
<g>
	<polygon fill="#CED2D9" points="248.5,82.1 257.6,82.1 257.6,106.6 248.5,106.6 	"/>
	<polygon fill="#CED2D9" points="248.5,82.1 255.5,82.1 255.5,106.4 248.5,106.4 	"/>
	<path fill="#CED2D9" d="M253.1,60.4L253.1,60.4c5.9,0,10.7,4.8,10.7,10.7v17.6c0,6.1-4.8,11-10.7,11l0,0c-5.9,0-10.9-4.8-10.9-11
		V71.1C242.1,65.2,247.2,60.4,253.1,60.4z"/>
	<path fill="#E6E6E6" d="M253.1,60.4L253.1,60.4c5.9,0,10.7,4.8,10.7,10.7v14.4c0,5.9-4.8,10.7-10.7,10.7l0,0
		c-5.9,0-10.9-4.8-10.9-10.7V71.1C242.1,65.2,247.2,60.4,253.1,60.4z"/>
	<path fill="#CED2D9" d="M261.9,92.5c-2.1,2.4-4.8,3.7-8,3.7l0,0c-6.1,0-11-4.8-11-10.7V71.1c0-1.6,0.5-3.5,1.3-5.1
		c1.9-2.1,4.8-3.7,8-3.7l0,0c6.1,0,10.9,5.1,10.9,11v14.2C263.2,89.3,262.7,91.1,261.9,92.5z"/>
	<path fill="#333846" d="M241.6,68.2h23c0.5,0,0.8,0.5,0.8,0.8l0,0c0,0.5-0.3,0.8-0.8,0.8h-23c-0.5,0-0.8-0.3-0.8-0.8l0,0
		C240.8,68.7,241.1,68.2,241.6,68.2z M241.6,91.9h23c0.5,0,0.8,0.3,0.8,0.8l0,0c0,0.5-0.3,0.8-0.8,0.8h-23c-0.5,0-0.8-0.3-0.8-0.8
		l0,0C240.8,92.2,241.1,91.9,241.6,91.9z M241.6,89h23c0.5,0,0.8,0.3,0.8,0.8l0,0c0,0.3-0.3,0.8-0.8,0.8h-23c-0.5,0-0.8-0.5-0.8-0.8
		l0,0C240.8,89.3,241.1,89,241.6,89z M241.6,85.8h23c0.5,0,0.8,0.5,0.8,1.1l0,0c0,0.3-0.3,0.8-0.8,0.8h-23c-0.5,0-0.8-0.5-0.8-0.8
		l0,0C240.8,86.3,241.1,85.8,241.6,85.8z M241.6,82.9h23c0.5,0,0.8,0.5,0.8,1.1l0,0c0,0.3-0.3,0.8-0.8,0.8h-23
		c-0.5,0-0.8-0.5-0.8-0.8l0,0C240.8,83.4,241.1,82.9,241.6,82.9z M241.6,79.9h23c0.5,0,0.8,0.5,0.8,1.1l0,0c0,0.3-0.3,0.8-0.8,0.8
		h-23c-0.5,0-0.8-0.5-0.8-0.8l0,0C240.8,80.5,241.1,79.9,241.6,79.9z M241.6,77h23c0.5,0,0.8,0.5,0.8,0.8l0,0c0,0.5-0.3,1.1-0.8,1.1
		h-23c-0.5,0-0.8-0.5-0.8-1.1l0,0C240.8,77.5,241.1,77,241.6,77z M241.6,74h23c0.5,0,0.8,0.5,0.8,0.8l0,0c0,0.5-0.3,1.1-0.8,1.1h-23
		c-0.5,0-0.8-0.5-0.8-1.1l0,0C240.8,74.6,241.1,74,241.6,74z M241.6,71.1h23c0.5,0,0.8,0.5,0.8,0.8l0,0c0,0.5-0.3,1.1-0.8,1.1h-23
		c-0.5,0-0.8-0.5-0.8-1.1l0,0C240.8,71.6,241.1,71.1,241.6,71.1z"/>
	<path fill="#333846" d="M241.6,68.2h23h0.3c0,0.3,0.3,0.3,0.3,0.5l0,0c0,0.5-0.5,0.8-1.1,0.8h-23l0,0c-0.3,0-0.3-0.3-0.3-0.5l0,0
		C240.8,68.7,241.1,68.2,241.6,68.2z M264.8,91.9c0,0,0.3,0.3,0.3,0.5l0,0c0,0.5-0.5,0.8-1.1,0.8h-23l0,0c-0.3-0.3-0.3-0.3-0.3-0.5
		l0,0c0-0.5,0.3-0.8,0.8-0.8h23H264.8z M264.8,89c0,0,0.3,0.3,0.3,0.5l0,0c0,0.3-0.5,0.8-1.1,0.8h-23l0,0c-0.3-0.3-0.3-0.5-0.3-0.5
		l0,0c0-0.5,0.3-0.8,0.8-0.8h23H264.8z M264.8,86.1c0,0,0.3,0.3,0.3,0.5l0,0c0,0.3-0.5,0.8-1.1,0.8h-23l0,0
		c-0.3-0.3-0.3-0.5-0.3-0.5l0,0c0-0.5,0.3-1.1,0.8-1.1h23L264.8,86.1z M264.8,83.1c0,0,0.3,0.3,0.3,0.5l0,0c0,0.3-0.5,0.8-1.1,0.8
		h-23l0,0c-0.3-0.3-0.3-0.5-0.3-0.5l0,0c0-0.5,0.3-1.1,0.8-1.1h23C264.6,82.9,264.8,82.9,264.8,83.1z M264.8,79.9
		c0,0.3,0.3,0.5,0.3,0.5l0,0c0,0.5-0.5,1.1-1.1,1.1h-23l0,0c-0.3-0.3-0.3-0.5-0.3-0.5l0,0c0-0.5,0.3-1.1,0.8-1.1h23H264.8z
		 M264.8,77c0,0.3,0.3,0.5,0.3,0.5l0,0c0,0.5-0.5,1.1-1.1,1.1h-23c0,0,0,0,0-0.3c-0.3,0-0.3-0.3-0.3-0.5l0,0c0-0.3,0.3-0.8,0.8-0.8
		h23C264.6,77,264.8,77,264.8,77z M264.8,74c0,0.3,0.3,0.5,0.3,0.5l0,0c0,0.5-0.5,1.1-1.1,1.1h-23v-0.3c-0.3,0-0.3-0.3-0.3-0.5l0,0
		c0-0.3,0.3-0.8,0.8-0.8h23C264.6,74,264.8,74,264.8,74z M264.8,71.1c0,0.3,0.3,0.5,0.3,0.5l0,0c0,0.5-0.5,0.8-1.1,0.8h-23l0,0
		c-0.3,0-0.3-0.3-0.3-0.5l0,0c0-0.3,0.3-0.8,0.8-0.8h23H264.8z"/>
</g>
<g>
	<path fill="#E6E6E6" d="M363.9,148.3c-13.4,48.9-58,84.7-110.9,84.7c-52.9,0-97.5-35.8-110.9-84.7h15.2
		c12.8,40.6,50.8,70.3,95.6,70.3c44.9,0,82.8-29.7,95.6-70.3H363.9z"/>
	<path fill="#CED2D9" d="M145.4,148.3h12c12.8,40.6,50.8,70.3,95.6,70.3c44.9,0,82.8-29.7,95.6-70.3h12
		c-16.3,43.5-58.5,74.5-107.7,74.5C203.9,222.8,161.7,191.9,145.4,148.3z"/>
</g>
<polygon fill="#FFCC99" points="122.7,330 140.9,341.2 117.4,360.7 "/>
<path fill="#FFCC99" d="M122.7,330l18.2,11.2l-1.9,1.6c-1.3,0.5-3.7,1.1-5.1,0.8c-2.1-0.3-1.9-4.8-2.9-5.9c-1.3-1.3-5.3,1.1-6.7,0.8
	c-0.8-0.3-1.6-3.5-1.9-6.1L122.7,330z"/>
<polygon fill="#4D4D4D" points="123,356.1 117.4,360.7 118.4,353.7 "/>
<path fill="#E6B800" d="M122.7,330l116.7-202.2c5.9-10.4,24.6,0.3,18.4,10.7l-117,202.8c-2.9-0.5-5.9,1.6-6.7,1.1
	c-1.1-0.5-0.5-5.1-2.7-6.1c-2.1-1.3-6.4,2.1-6.7,0.8C124.6,335.6,123.8,332.9,122.7,330z"/>
<path fill="#FFCC00" d="M133.4,339.8c-0.3-1.3-0.8-3.2-1.9-3.7c-1.1-0.8-2.9,0-4.5,0.5l110.9-192.1l6.1,3.7L133.4,339.8z"/>
<path fill="#FFE344" d="M122.7,330l109-188.9l6.1,3.5L127,336.6c-1.1,0.5-1.9,0.8-2.1,0.3C124.6,335.6,123.8,332.9,122.7,330z"/>
<polygon fill="#CFA600" points="231.7,141.1 234.9,135.5 253.6,146.2 250.1,151.8 "/>
<path fill="#CC3300" d="M234.9,135.5l4.5-7.7c6.1-10.7,24.6,0.3,18.4,10.7l-4.3,7.7L234.9,135.5z"/>
<polygon fill="#E6E6E6" points="270.2,130.4 397.3,350.3 394.9,369 377.3,361.8 249.3,140.3 "/>
<polygon fill="#CED2D9" points="270.2,130.4 397.3,350.3 394.9,369 260.6,135 "/>
<path fill="#ECF0F1" d="M253.1,105c13.1,0,23.5,10.4,23.5,23.5c0,13.1-10.4,23.5-23.5,23.5c-13.1,0-23.5-10.4-23.5-23.5
	C229.6,115.5,240,105,253.1,105z"/>
<path fill="#BFC2C3" d="M253.1,107.4c11.8,0,21.1,9.3,21.1,21.1s-9.3,21.1-21.1,21.1c-11.8,0-21.1-9.4-21.1-21.1
	S241.3,107.4,253.1,107.4z"/>
<path fill="#ACAFB0" d="M253.1,114.9c7.5,0,13.6,6.1,13.6,13.6c0,7.5-6.1,13.6-13.6,13.6c-7.5,0-13.6-6.1-13.6-13.6
	C239.5,121.1,245.6,114.9,253.1,114.9z"/>
<path fill="#717373" d="M253.1,123.7c2.7,0,4.8,2.1,4.8,4.8c0,2.7-2.1,4.8-4.8,4.8c-2.7,0-4.8-2.1-4.8-4.8
	C248.3,125.9,250.4,123.7,253.1,123.7z"/>
<path fill="#333846" d="M400.5,348.4L322.8,214c21.6-15.8,37.4-38.7,44.6-64.6c0.3-1.1,0-2.4-0.5-3.2c-0.8-1.1-1.9-1.6-2.9-1.6
	h-15.2c-1.6,0-2.9,1.1-3.5,2.7c-6.1,19-17.9,35.5-33.4,47.5l-33.1-57.2c1.1-2.9,1.6-5.9,1.6-9.1c0-12-8-22.4-19.2-25.9v-1.9
	c1.6-0.8,2.9-2.1,3.7-3.5c3.5-0.3,4.8-3.5,4-6.1c0.3-0.8,0.3-1.9,0-2.9c0.3-1.1,0.3-1.9,0-2.9c0.3-1.1,0.3-2.1,0-2.9
	c0.3-1.1,0.3-2.1,0-2.9c0.3-1.1,0.3-2.1,0-2.9c0.3-1.1,0.3-2.1,0-2.9c0.3-1.1,0.3-2.1,0-2.9c0.5-2.4-0.3-5.1-2.7-5.9
	c-0.8-1.3-2.1-2.9-3.2-4v-0.3c-1.9-1.6-5.1-3.2-7.5-3.5l-2.7-0.3c-0.3,0-0.3,0-0.3,0c-2.1,0-3.2,0.5-4.8,1.1c-0.3,0-0.5,0.3-0.5,0.3
	c-3.2,1.3-5.6,3.7-7.2,6.7c-0.5,0.3-1.3,0.8-1.9,1.3c-1.1,1.3-1.3,2.7-0.8,4c0,0.3,0,0.3,0,0.5c-0.3,0.8-0.3,1.9,0,2.9
	c-0.3,0.8-0.3,1.9,0,2.9c-0.3,0.8-0.3,1.9,0,2.9c-0.3,0.8-0.3,1.9,0,2.9c-0.3,0.8-0.3,1.6,0,2.7v0.3c-0.3,1.1-0.3,1.9,0,2.9
	c-0.3,1.1-0.3,2.1,0,2.9c-0.5,1.3-0.3,2.9,0.5,4c1.1,1.6,2.1,1.9,3.2,2.1c1.1,1.3,2.4,2.7,3.7,3.5v1.9c-11.2,3.5-19,13.9-19,25.9
	c0,3.7,0.8,7.7,2.4,11.2l-32.3,56.1c-16.6-12-28.8-29.1-35-48.6c-0.5-1.6-1.9-2.7-3.5-2.7h-15.2c-1.1,0-2.1,0.5-2.9,1.6
	c-0.5,0.8-0.8,2.1-0.5,3.2c7.2,26.4,23.5,49.7,45.9,65.7l-65.2,113c-0.3,0.3-0.3,0.8-0.3,1.1l-5.6,31c-0.3,1.6,0.5,2.9,1.9,3.7
	c1.3,0.8,2.9,0.8,4-0.3l23.8-19.5c0.3-0.3,0.5-0.5,0.8-1.1l66-114.3c13.6,5.3,28.3,8,43,8c14.7,0,29.4-2.9,43-8.3l78,135.2
	c0.5,0.8,1.1,1.3,1.9,1.6l17.4,7.2c1.1,0.5,2.4,0.3,3.2-0.3c1.1-0.5,1.9-1.6,1.9-2.7l2.4-18.7C401.1,350,400.8,349.2,400.5,348.4z
	 M394.9,369l-17.6-7.2l-79.6-137.8c-13.6,5.9-28.9,9.1-44.6,9.1c-15.8,0-30.7-3.2-44.6-9.1l-67.6,117.3l-1.9,1.6l-16,13.4l-5.6,4.5
	l1.1-6.9l4-21.4l0.3-2.4L189.8,214c-23-15.2-40.1-38.5-47.5-65.7h3.2h12c6.9,21.9,21.1,40.3,39.5,52.9l34.7-60.1l0.8-1.3
	c-1.9-3.2-2.9-7.2-2.9-11.2c0-11.5,8.3-21.1,19-23.2v-6.7c-2.1-1.1-4-2.7-5.3-5.1c-0.8,0-1.9,0.3-2.4-0.3c-0.3-0.5,0-1.3,0.8-1.3
	h1.1c0-0.5-0.3-0.8-0.3-1.3c-0.5,0-1.1,0-1.6-0.3c-0.3-0.5,0-1.3,0.8-1.3h0.5v-1.3c-0.5,0-0.8,0-1.3-0.5c-0.3-0.3,0-1.3,0.8-1.3h0.5
	v-1.1c-0.5,0-1.1,0-1.3-0.8c-0.3-0.5,0.3-1.1,0.8-1.1h0.5v-1.1c-0.5,0-0.8,0-1.3-0.5c-0.3-0.5,0-1.3,0.8-1.3h0.5v-1.1
	c-0.5,0-0.8,0-1.3-0.5c-0.3-0.5,0-1.3,0.8-1.3h0.5v-1.1c-0.5,0-0.8,0-1.3-0.5c-0.3-0.5,0-1.3,0.8-1.3h0.5V73c-0.5,0-0.8,0-1.3-0.5
	c-0.3-0.5,0-1.3,0.8-1.3h0.5c0-0.3,0.3-0.8,0.3-1.3c-0.5,0-1.3,0.3-1.6-0.5c-0.3-1.3,1.3-1.1,1.9-1.1c0.8-2.9,3.2-5.6,5.9-6.7
	c0.5-0.3,1.9-1.1,4-1.1l2.7,0.3c1.6,0,4,1.6,5.1,2.7h0.3c0.8,0.8,2.4,3.2,2.7,4.3l0.3,0.5h1.1c1.1,0.3,1.1,1.6,0,1.6h-0.8v1.3h0.8
	c1.1,0.3,1.1,1.9,0,1.9h-0.8V74h0.8c1.1,0.3,1.1,1.9,0,1.9h-0.8V77h0.8c1.1,0.3,1.1,1.9,0,1.9h-0.8v1.1h0.8c1.1,0.3,1.1,1.9,0,1.9
	h-0.8v1.1h0.8c1.1,0.3,1.1,1.9,0,1.9h-0.8v1.1l0.8,0.3c1.1,0,1.1,1.6,0,1.6h-0.8V89h0.8c1.1,0,1.1,1.6,0,1.6h-0.8
	c0,0.5-0.3,0.8-0.3,1.3h1.1c1.1,0,1.1,1.6,0,1.6h-1.9c-1.1,2.4-2.9,4-5.1,5.1v6.7c10.7,2.1,19,11.8,19,23.2c0,3.2-0.8,6.4-1.9,9.4
	l35.8,62.5c17.9-12.6,31.5-30.7,38.2-52.1h12h3.2c-7.2,26.7-23.8,49.4-46,64.6l79.3,137.3L394.9,369z"/>
<path fill="#4E5A62" d="M253.1,152c0,0,1.3,0,1.6,0c0.5,0,0.5,0,0.5,0l1.1-0.3l15,25.9l19.2,33.7c0,0-15,6.9-37.4,7.2
	c-22.7-0.3-37.4-7.2-37.4-7.2l19.2-33.7l15-25.9c0,0,0.8,0.3,1.1,0.3c0,0,0,0,0.3,0C251.7,152,253.1,152,253.1,152z M252,155.8
	l-31,53.7c2.1,0.5,4,1.3,5.9,1.6c8.5,2.4,17.4,3.5,26.2,3.5c8.8,0,17.6-1.1,26.2-3.5c1.9-0.5,3.7-1.1,5.6-1.6l-30.7-53.7
	c-0.3,0-0.5,0-1.1,0l0,0l0,0C252.5,155.8,252.3,155.8,252,155.8z"/>
</svg>
