<?xml version="1.0" encoding="utf-8"?>
<!-- Generator: Adobe Illustrator 17.1.0, SVG Export Plug-In . SVG Version: 6.00 Build 0)  -->
<!DOCTYPE svg PUBLIC "-//W3C//DTD SVG 1.1//EN" "http://www.w3.org/Graphics/SVG/1.1/DTD/svg11.dtd">
<svg version="1.1" id="Layer_1" xmlns="http://www.w3.org/2000/svg" xmlns:xlink="http://www.w3.org/1999/xlink" x="0px" y="0px"
	 viewBox="0 0 281 293" enable-background="new 0 0 281 293" xml:space="preserve">
<image display="none" overflow="visible" width="128" height="128" xlink:href="../../09_search-128.png"  transform="matrix(2.125 0 0 2.125 5 14)">
</image>
<path fill="#333846" d="M151.7,49.2V26.6h11.6c5.5,0,10-4.5,10-10v-0.2c0-5.5-4.5-10-10-10h-43.5c-5.5,0-10,4.5-10,10v0.2
	c0,5.5,4.5,10,10,10h11.6v22.5c-61,5.2-109,56.4-109,118.7c0,65.7,53.4,119.1,119.1,119.1s119.1-53.4,119.1-119.1
	C260.7,105.6,212.6,54.3,151.7,49.2z M141.5,271c-56.9,0-103.1-46.3-103.1-103.1c0-56.9,46.3-103.1,103.1-103.1
	S244.7,111,244.7,167.9C244.7,224.7,198.4,271,141.5,271z"/>
<path fill="#E6B800" d="M203.4,110.9l-0.1-0.1c-3.9-3.9-10.3-3.7-14.3,0.3l-46.1,46l-30.3-32.5c-2.9-3.1-8.5-2.6-12.5,1.1l-0.1,0.1
	c-4,3.7-4.9,9.3-2,12.4l36.8,39.5c0.2,0.3,0.4,0.5,0.7,0.8l0.1,0.1c0,0,0.1,0.1,0.1,0.1l0.6,0.6c1.4,1.5,3.3,2.1,5.5,2
	c2.9,0.2,5.9-0.8,8.1-3.1l53.2-53.1C207.1,121.1,207.2,114.7,203.4,110.9z"/>
</svg>
