<?xml version="1.0" encoding="utf-8"?>
<!-- Generator: Adobe Illustrator 17.1.0, SVG Export Plug-In . SVG Version: 6.00 Build 0)  -->
<!DOCTYPE svg PUBLIC "-//W3C//DTD SVG 1.1//EN" "http://www.w3.org/Graphics/SVG/1.1/DTD/svg11.dtd">
<svg version="1.1" id="Layer_1" xmlns="http://www.w3.org/2000/svg" xmlns:xlink="http://www.w3.org/1999/xlink" x="0px" y="0px"
	 viewBox="0 0 902.5 941" enable-background="new 0 0 902.5 941" xml:space="preserve">
<image display="none" overflow="visible" width="800" height="600" xlink:href="../../../Downloads/347_re-paint-floydworx.png"  transform="matrix(2.3531 0 0 2.3531 -952.2697 -235.8333)">
</image>
<g id="xj2eZt.tif">
	
		<image overflow="visible" width="473" height="531" id="Layer_1_2_" xlink:href="4EE06F94296B3B31.png"  transform="matrix(1.9303 0 0 1.9303 -11 -14)">
	</image>
</g>
<rect x="661.7" y="-21" fill="#D3CAC5" width="244" height="968"/>
<polygon fill="#F9D762" points="-12.3,753 690.7,754.9 851.7,971 -30.3,971 "/>
<rect x="-13.3" y="-20" fill="#E2DBD7" width="704" height="777"/>
<rect x="-13.3" y="-20" fill="#E2DBD7" width="704" height="777"/>
<polygon fill="#9B9491" points="209.7,205 225.7,661 241.7,661 227.7,205 "/>
<polygon fill="#686464" points="227.7,205 524.7,270 525.7,545 241.7,661 "/>
<polygon fill="#847979" points="256.7,256 267.7,598 342.7,568 340.7,296 "/>
<polygon fill="#847979" points="256.7,256 509.7,298 534.7,316 340.7,296 "/>
<polygon fill="#686464" points="533.7,511 342.7,568 340.7,296 534.7,316 "/>
<polygon fill="#443F3F" points="268.7,598 344.7,566 532.7,511 523.7,522 "/>
<path fill="#443F3F" d="M416.7,328.5l1,59.5c0,0,23,31,3.5,68l-1.5,64.5l5.5,0.5c0,0,28-62,58.5-19l4-1.5l-1.5-56
	c0,0-17-32-1.5-54.5l0.5-60.5l-6,1.5c0,0-16.5,57.5-56-3.5L416.7,328.5z"/>
<path fill="#847979" d="M421.7,328.5l1,59.5c0,0,23,31,3.5,68l-1.5,64.5l5.5,0.5c0,0,28-62,58.5-19l4-1.5l-1.5-56
	c0,0-17-32-1.5-54.5l0.5-60.5l-6,1.5c0,0-16.5,57.5-56-3.5L421.7,328.5z"/>
<ellipse fill="#443F3F" cx="428.1" cy="338.7" rx="3" ry="4.3"/>
<ellipse fill="#443F3F" cx="431.1" cy="503.7" rx="3" ry="4.3"/>
<ellipse fill="#443F3F" cx="486.1" cy="339.7" rx="3" ry="4.3"/>
<ellipse fill="#443F3F" cx="487.1" cy="489.7" rx="3" ry="4.3"/>
<polygon fill="#443F3F" points="450.4,386.3 457.1,405.7 456.4,435.3 451.1,458 454.4,460 469.7,437.7 470.1,403.7 454.4,383.7 "/>
<polygon fill="#443F3F" points="552.6,400 551.7,452 669.2,471 715.8,470 716.7,398 707.7,392.1 "/>
<polygon fill="#443F3F" points="809.7,445 754.7,453.4 754.7,577.7 808.7,591 "/>
<polygon fill="#443F3F" points="679.7,472 680.7,524 788.7,528 792.7,472 "/>
<polygon fill="#443F3F" points="551.7,402 488.7,406 478.7,412 470.7,413 469.7,431 476.7,431 490.7,440 550.7,445 "/>
<polygon fill="#443F3F" points="544.7,403 557.7,399 555.7,452 544.7,444 "/>
<polygon opacity="0.59" fill="#1B1B1B" points="787.7,532 754.7,531 754.7,527 783.7,528 783.7,469.5 754.8,471 754.6,467 
	787.7,465.3 "/>
<rect x="696.2" y="453.5" transform="matrix(2.799749e-02 0.9996 -0.9996 2.799749e-02 1149.5106 -239.1579)" fill="#1B1B1B" width="3" height="36"/>
<polygon fill="#1B1B1B" points="714.7,469 706.7,469 707.7,392 714.7,400 "/>
<polygon fill="#1B1B1B" points="544.7,444 552.2,451.5 556.5,400 548.7,401.5 "/>
</svg>
