<?xml version="1.0" encoding="utf-8"?>
<!-- Generator: Adobe Illustrator 17.1.0, SVG Export Plug-In . SVG Version: 6.00 Build 0)  -->
<!DOCTYPE svg PUBLIC "-//W3C//DTD SVG 1.1//EN" "http://www.w3.org/Graphics/SVG/1.1/DTD/svg11.dtd">
<svg version="1.1" id="Layer_1" xmlns="http://www.w3.org/2000/svg" xmlns:xlink="http://www.w3.org/1999/xlink" x="0px" y="0px"
	 viewBox="0 0 902.5 941" enable-background="new 0 0 902.5 941" xml:space="preserve">
<rect x="-7.3" y="-6" fill="#E2DBD7" width="916" height="957"/>
<path fill="#F9D762" d="M925.7-21h-442c-8.1,0-14.8,6.1-15.8,13.9c-2.1-6.3-8.1-10.9-15.2-10.9h-226c-8.8,0-16,7.2-16,16v-6
	c0-8.8-7.2-16-16-16h-228c-8.8,0-16,7.2-16,16v387c0,8.8,7.2,16,16,16h228c8.8,0,16-7.2,16-16v-90c0,8.8,7.2,16,16,16h226
	c6.9,0,12.7-4.4,15-10.5V708c0,8.8,7.2,16,16,16h442c8.8,0,16-7.2,16-16V-5C941.7-13.8,934.6-21,925.7-21z"/>
<g>
	<path fill="#D8B041" d="M793.7,311.3c-1.3-10.3-4.5-16.3-4.5-16.3l-1.5-0.5V284h-30v-19c0-8.8-6.7-16-15.4-16H478.5
		c-8.7,0-15.8,7.2-15.8,16v41c0,8.8,7.1,16,15.8,16h263.8c8.7,0,15.4-7.2,15.4-16v-11h21.2l-1.9,42l-12.7,6c0,0-123.3,6-137.3,6
		s-11.3,17.3-11.3,17.3l8.7,54.9l-6.7,1.1L652.5,722h29l-35.1-304.3l-10.9,1.8c-1.7-14.6-5.4-45.5-6.4-51.1
		c-1.3-7.3,2.7-11.3,2.7-11.3s138.3,0.3,145.7,0c14.3-0.7,16.3-17,16.3-17S794.3,316,793.7,311.3z"/>
</g>
<image display="none" overflow="visible" width="800" height="600" xlink:href="../../../Downloads/347_re-paint-floydworx.png"  transform="matrix(2.3531 0 0 2.3531 -952.2697 -235.8333)">
</image>
<path fill="#3A3A3A" d="M601.7,355v68h14v-66c0,0,0.3-4,4.5-4c4.2,0,147.5,0,147.5,0s20-5,20-22.8s0-47.2,0-47.2s0-17-22-17
	s-20,0-20,0v14h22c0,0,6,0.3,6,8s0,42,0,42s-1.7,9-8.7,9s-145.3,0-145.3,0S601.7,335.8,601.7,355z"/>
<polygon fill="#A1D7F9" points="623.7,959 593.7,959 597.2,411 620.3,411 "/>
<polygon fill="#7ABCE5" points="623.7,959 610,959 611.6,411 622.2,411 "/>
<path fill="#3A3A3A" d="M479.7,273c0,4.4-3.6,8-8,8h-5c-4.4,0-8-3.6-8-8l0,0c0-4.4,3.6-8,8-8h5C476.1,265,479.7,268.6,479.7,273
	L479.7,273z"/>
<rect x="590.7" y="410" fill="#050001" width="39" height="67"/>
<rect x="590.7" y="410" fill="#3A3A3A" width="22" height="67"/>
<path fill="#FBFCFA" d="M755.7,292c0,8.8-7,16-16,16H482.1c-9,0-16.4-7.2-16.4-16v-41c0-8.8,7.3-16,16.4-16h257.7c9,0,16,7.2,16,16
	V292z"/>
<path fill="#E2E2E2" d="M755.7,292c0,8.8-7,16-16,16H482.1c-9,0-16.4-7.2-16.4-16v-17h290V292z"/>
<path fill="#F7A859" d="M737.7,308H503.6c-10.8,0-18.5-10.5-15.3-20.8l16.4-52.2h233V308z"/>
<path fill="#EA9649" d="M737.7,308H503.6c-10.8,0-18.5-10.5-15.3-20.8l5.4-11.2l244,1V308z"/>
<rect x="756.7" y="284" fill="none" width="30" height="8"/>
<polygon fill="#BFB8B4" points="679.1,951.7 707.7,949.7 681.5,722 652.5,722 "/>
</svg>
